<svg xmlns="http://www.w3.org/2000/svg" width="298" height="298" viewBox="0 0 298 298" fill="none"><path d="M62.3116 51.8906C62.1878 51.6863 62.228 51.5222 62.0639 51.482C62.9118 57.9513 64.6726 67.0796 66.8359 74.5673C66.9628 75.4681 67.1299 76.2048 67.297 76.9415C67.5879 77.8825 67.6746 78.9473 68.1698 79.7645C67.1824 78.8265 65.8267 77.9722 64.5143 77.6502L64.3502 77.6099C64.0221 77.5294 63.5733 77.9411 63.6568 78.3095L63.6166 78.4735C63.6691 81.0953 64.2137 83.8378 65.331 86.3729C66.0769 88.2952 67.1912 90.1338 68.3456 91.8085C68.5933 92.2171 68.8811 92.4616 69.1287 92.8702C68.2249 92.3006 66.0489 91.245 65.5165 91.2883C65.1482 91.3719 64.9036 91.6597 64.9872 92.0281C65.6154 95.1389 66.4046 97.5936 67.6457 100.333C68.763 102.868 68.9363 104.998 70.6665 107.162C70.3786 106.917 68.6948 105.982 68.3264 106.066C67.9581 106.149 67.8776 106.477 67.7971 106.805C68.5924 110.653 69.9604 114.293 71.8608 117.89C73.43 120.71 75.2437 123.242 77.4258 125.691C77.4258 125.691 77.4258 125.691 77.3856 125.855C75.6585 124.387 73.566 123.7 73.1977 123.784C72.8293 123.867 72.5848 124.155 72.6684 124.523C73.4606 127.675 74.6212 130.742 76.3947 133.438C77.509 135.277 79.0318 136.868 80.5949 138.295C79.0349 137.564 75.466 136.515 76.0478 138.397C77.3756 142.201 80.8762 146.365 83.7981 149.342C83.1821 149.017 82.3619 148.816 81.6654 148.819L81.5014 148.779C81.133 148.863 80.8885 149.15 80.972 149.519C81.4764 152.425 82.473 155.453 83.9586 157.904C84.6612 159.294 85.5681 160.56 86.5152 161.662C86.0633 161.377 85.5712 161.257 85.079 161.136L84.915 161.096C84.5868 161.015 84.3423 161.303 84.2618 161.631C84.1813 161.959 84.3051 162.163 84.6332 162.244L84.757 162.448L85.1285 163.061L85.667 164.411L86.7038 167.274C90.0185 175.74 89.9288 173.979 92.541 181.055C90.6437 178.154 88.7463 175.254 86.685 172.313C84.995 169.985 77.3314 160.105 76.9753 162.974C75.3225 159.786 72.8959 157.625 69.9399 156.204L68.5439 155.514L68.3799 155.474C68.0518 155.393 68.0518 155.393 67.931 155.885C67.8536 156.91 67.9805 157.811 68.4354 158.792C67.4822 156.297 65.9996 154.542 64.0249 152.666C63.2015 151.768 62.1739 150.994 61.106 150.385C60.8182 150.14 58.3141 149.004 58.2305 148.636C58.3977 149.372 58.5648 150.109 58.6081 150.641C57.9086 149.948 57.209 149.255 56.5095 148.561C54.7824 147.094 52.9345 146.119 51.0464 145.308L50.8823 145.267C50.7183 145.227 50.5542 145.187 50.3902 145.147C50.0218 145.23 49.737 145.682 49.8206 146.051C49.9042 146.419 49.9877 146.787 50.1115 146.992C49.3687 145.766 48.2173 144.788 47.0256 143.973C45.0942 142.63 42.8377 141.902 40.544 142.035L40.38 141.995C40.2159 141.955 40.1757 142.119 40.0116 142.079C39.7671 142.367 39.6463 142.859 39.9342 143.103C40.4697 143.756 40.9649 144.574 41.5003 145.227C37.3124 143.156 30.6327 142.735 24.2006 142.722C24.3646 142.762 24.6927 142.843 24.8568 142.883C24.3646 142.762 24.0365 142.682 23.5041 142.725C29.5368 145.075 32.0934 148.832 41.0016 152.931C41.4535 153.216 41.9457 153.337 42.6019 153.498C42.0293 153.705 41.4164 154.076 40.7632 154.612C40.5187 154.9 40.6022 155.268 40.6858 155.636C43.4034 158.738 46.8948 160.812 50.7887 161.246C50.6247 161.205 50.5844 161.369 50.3801 161.493C50.1356 161.781 50.2192 162.149 50.507 162.394L50.6711 162.434C53.2215 164.799 56.7532 166.709 60.3996 166.734C60.3221 167.759 65.6676 172.201 71.6509 172.625C69.32 173.619 73.833 175.074 85.9045 181.166C87.8762 182.345 90.012 183.565 91.9836 184.744C89.4485 185.862 86.9939 186.651 84.499 187.604C81.4314 188.765 78.4877 190.13 75.5842 191.33C70.1053 193.813 64.6264 196.295 59.2714 198.981C55.7147 200.718 47.0104 205.713 43.494 207.285C42.9305 209.582 42.5591 208.969 44.7937 214.04C44.8773 214.408 45.3694 214.529 45.778 214.281C49.5359 211.724 60.726 203.686 64.8955 201.579C76.7479 195.094 79.3294 195.206 92.2899 189.168C90.7824 191.059 88.7888 194.222 87.7332 196.398C86.0275 199.806 84.978 203.375 84.2164 207.188L84.1761 207.352L84.1359 207.516C84.2195 207.885 84.5073 208.129 84.7116 208.005C85.4483 207.838 86.021 207.631 86.4698 207.219C84.5165 210.219 83.0182 214.199 82.7487 218.133L82.7084 218.297C82.6279 218.626 82.8756 219.034 83.3677 219.155C83.8599 219.276 84.5563 219.273 85.129 219.065C84.5996 219.805 84.0703 220.545 83.705 221.325C82.6896 223.337 82.2902 225.674 82.2592 227.927L82.2189 228.091L82.1787 228.255C82.2622 228.623 82.5903 228.704 82.9587 228.62C83.327 228.537 83.5313 228.413 83.8997 228.33C83.6551 228.617 83.5344 229.11 83.2899 229.397C82.519 231.121 82.0763 232.926 82.1258 234.851L82.0855 235.015C82.0855 235.015 82.0855 235.015 82.0453 235.179C82.1288 235.548 82.4167 235.792 82.785 235.709C83.1534 235.625 83.6858 235.582 84.0944 235.334C82.9242 239.395 82.5742 243.658 80.8374 249.319C80.2307 251.083 79.791 253.584 78.7323 255.064C80.6887 252.761 83.1403 251.275 85.1369 248.808C87.1335 246.341 88.7185 243.426 89.9753 240.429L89.9351 240.594C89.8948 240.758 90.0186 240.962 90.1827 241.002C90.4705 241.247 90.8389 241.163 90.9194 240.835L90.9596 240.671C92.4238 238.247 93.4764 235.375 93.8325 232.506C94.0709 230.825 94.105 229.268 94.0153 227.507C94.5539 228.856 94.9283 230.166 95.4669 231.515C95.7888 230.203 96.4792 228.807 96.6371 227.454C96.9158 225.609 96.5785 223.439 95.9564 221.722C99.0082 226.297 97.8108 214.872 95.9848 209.554C96.6471 211.108 97.3497 212.497 98.0523 213.887C98.2596 214.46 98.9964 214.293 99.1171 213.801C99.6219 207.489 99.1394 200.24 97.6756 193.446C97.6695 192.053 97.6231 190.824 97.781 189.471C98.4434 191.025 98.9416 192.539 99.604 194.093C101.975 202.153 104.092 208.412 104.71 218.651C104.67 218.815 104.67 218.815 104.834 218.856C104.958 219.06 105.246 219.304 105.45 219.181C106.431 218.726 107.125 218.026 107.858 217.163C108.388 216.423 108.753 215.643 108.954 214.823C108.979 220.394 112.163 227.263 115.54 231.222C115.704 231.262 115.664 231.426 115.828 231.467C116.156 231.547 116.565 231.299 116.645 230.971C116.887 229.987 116.924 229.127 116.961 228.266C117.128 229.003 117.336 229.575 117.667 230.352C119.982 235.095 122.78 237.868 123.235 238.849C123.523 239.094 124.055 239.051 124.34 238.599C124.745 237.655 124.987 236.67 125.105 235.482C126.315 240.475 128.874 244.929 132.044 248.315L132.208 248.356C133.4 249.17 134.081 245.684 134.075 244.291C135.99 251.371 139.816 254.918 142.162 257.407C142.614 257.692 143.187 257.484 143.143 256.952C143.097 255.723 143.01 254.658 142.964 253.429C145.415 261.162 151.25 265.028 151.373 265.232C151.825 265.517 152.234 265.269 152.191 264.737C152.228 263.877 152.061 263.14 152.098 262.279C153.757 266.861 157.053 271.148 161 274.203C161.164 274.243 161.287 274.448 161.492 274.324C162.024 274.28 162.309 273.829 162.225 273.46C162.015 272.191 161.805 270.922 161.43 269.613C167.642 275.485 174.668 280.165 180.293 282.763C180.045 282.354 175.628 274.835 167.513 264.67C168.005 264.79 169.029 264.868 169.438 264.62C169.642 264.496 169.763 264.004 169.639 263.8L169.679 263.636C167.943 260.079 164.897 256.897 161.654 255.232C162.554 255.105 163.864 254.73 163.368 253.913C163.245 253.709 162.044 250.805 158.918 247.951C158.054 247.218 157.355 246.524 156.451 245.955C155.463 245.017 154.436 244.243 153.368 243.633C154.433 243.546 155.25 243.051 156.107 242.392C156.352 242.104 156.268 241.736 156.021 241.327C152.44 237.492 147.713 234.071 142.668 232.66C144.02 232.817 147.007 231.985 146.224 230.923C144.575 228.431 142.476 226.351 140.053 224.887C138.697 224.033 137.137 223.302 135.537 222.736C136.109 222.528 136.722 222.157 137.211 221.581C137.456 221.293 137.372 220.925 137.248 220.721C135.19 218.476 132.927 216.356 130.216 214.647C128.736 213.588 127.012 212.818 125.208 212.375C125.616 212.127 125.985 212.044 126.434 211.632C126.678 211.344 126.799 210.852 126.511 210.608C125.688 209.71 124.864 208.812 123.837 208.038C122.11 206.571 119.974 205.351 117.677 204.788C117.671 203.395 104.015 191.001 102.616 189.614C112.146 195.43 119.277 205.354 129.331 209.038C129.495 209.079 129.699 208.955 129.74 208.791C129.981 207.806 129.894 206.742 129.604 205.801C130.554 207.599 131.748 209.11 133.107 210.66C134.054 211.762 135.206 212.741 136.562 213.595C137.917 214.449 139.353 214.976 140.91 215.01C141.074 215.05 141.115 214.886 141.279 214.926C141.647 214.843 141.768 214.35 141.684 213.982C142.508 214.88 143.331 215.778 144.359 216.551C146.661 218.508 149.413 220.052 152.162 220.901C152.326 220.941 152.326 220.941 152.49 220.981C152.858 220.898 153.103 220.61 153.019 220.241C153.016 219.545 152.809 218.972 152.601 218.4C154.663 221.34 157.374 223.049 161.85 225.365L164.23 226.296L165.502 226.783C165.666 226.823 166.775 227.269 166.446 227.188C167.022 227.677 167.675 227.142 167.632 226.609C167.295 224.439 166.589 222.353 165.679 220.391C168.811 224.638 173.086 227.773 177.602 229.925C178.546 230.33 179.159 229.959 178.908 228.854C178.738 227.421 178.364 226.111 177.989 224.802C177.906 224.434 177.658 224.025 177.451 223.452C180.914 228.476 185.176 228.826 187.396 230.414C187.56 230.455 187.56 230.455 187.724 230.495C189.405 230.733 188.813 226.762 188.355 225.084C188.024 224.307 187.693 223.53 187.362 222.753C192.067 230.517 199.938 231.752 200.226 231.997C200.718 232.117 201.207 231.542 200.795 231.093C200.548 230.684 200.3 230.276 200.053 229.867C203.259 232.393 206.42 233.69 210.44 235.024C212.409 235.507 214.458 235.662 215.969 234.467C216.173 234.344 216.253 234.016 216.13 233.811C215.758 233.198 215.511 232.79 215.099 232.341C218.513 235.44 223.147 236.402 226.994 235.607L227.158 235.647L227.363 235.523C227.607 235.236 227.688 234.908 227.4 234.663C226.74 233.806 225.877 233.072 224.973 232.502C233.553 236.521 243.251 233.856 252.961 233.977C253.534 233.77 254.066 233.726 254.475 233.479C254.475 233.479 254.475 233.479 254.515 233.315C249.915 230.795 245.359 228.807 240.639 226.78C236.494 225.241 232.427 222.678 228.539 223.637C229.805 222.731 230.499 222.031 231.189 220.635L231.229 220.471C231.31 220.143 231.267 219.61 230.774 219.49C228.762 218.474 228.224 217.125 222.937 216.697C221.092 216.419 219.167 216.468 217.325 216.886C218.919 216.06 219.569 214.828 219.814 214.54C219.814 214.54 219.814 214.54 219.854 214.376C219.894 214.212 219.935 214.048 219.811 213.843C219.687 213.639 219.523 213.599 219.523 213.599L219.359 213.559L219.195 213.518L219.031 213.478L218.539 213.357L217.759 212.992L216.158 212.425C215.174 212.184 214.066 211.738 213.082 211.497C211.933 211.215 211.153 210.85 209.76 210.856C208.368 210.862 206.934 211.032 204.888 211.574C205.582 210.874 206.111 210.134 206.517 209.19C206.637 208.698 206.554 208.33 206.062 208.209C201.833 206.302 196.587 205.711 192.25 207.082C191.922 207.001 191.39 207.045 191.021 207.128C191.226 207.004 191.306 206.676 191.51 206.552C192.572 205.769 193.51 204.782 193.51 204.782C193.591 204.454 193.507 204.086 193.343 204.045L193.179 204.005C190.344 202.092 187.103 201.123 184.029 200.891C182.513 200.693 180.915 200.823 179.442 201.157C179.686 200.869 180.095 200.621 180.34 200.333C180.34 200.333 180.544 200.21 180.584 200.046C180.665 199.717 180.621 199.185 180.293 199.105C177.542 197.56 174.425 196.795 171.434 196.931C169.837 197.061 168.2 197.355 166.646 198.017C166.931 197.566 167.216 197.114 167.5 196.662L167.541 196.498C167.661 196.006 167.414 195.597 166.922 195.476C162.532 194.225 158.149 194.368 154.345 195.695C154.549 195.572 154.874 194.956 154.955 194.628C155.521 193.027 151.259 192.677 150.439 192.476C147.57 192.12 144.867 192.501 142.125 193.045C142.778 192.51 143.267 191.934 143.96 191.235C140.639 190.594 137.565 190.361 134.25 191.113C132.613 191.407 130.895 192.029 129.465 192.896C129.914 192.484 131.056 191.373 131.341 190.921C131.913 190.714 131.786 189.813 131.13 189.652C128.957 189.293 120.643 189.862 114.901 188.454C111.58 187.813 108.342 187.54 104.941 187.227C107.275 186.93 109.773 186.674 112.026 186.705C114.484 186.612 116.944 187.216 119.569 187.859C122.07 188.299 124.899 188.819 127.518 188.07C127.682 188.111 127.722 187.947 127.927 187.823C128.171 187.535 128.088 187.167 127.8 186.922C127.512 186.677 127.06 186.393 126.772 186.148C128.085 186.47 129.601 186.668 130.83 186.622C131.895 186.535 132.96 186.449 134.065 186.198C135.538 185.864 136.56 185.245 137.95 184.542L135.074 182.793C137.618 183.765 140.361 183.221 142.775 182.595C144.821 182.054 146.456 181.063 148.378 180.317L146.855 178.726C148.372 178.925 149.56 179.042 151.158 178.912C152.387 178.866 153.656 178.655 154.965 178.281C157.584 177.532 159.71 176.662 161.958 175.301C160.806 174.322 159.655 173.344 158.503 172.366C161.496 172.926 165.229 174.016 168.136 173.512C169.405 173.301 170.714 172.927 171.9 172.348C172.473 172.141 173.005 172.097 173.414 171.85C173.618 171.726 175.252 170.735 175.252 170.735C174.348 170.166 173.445 169.596 172.581 168.863C175.122 169.138 177.948 168.962 180.443 168.009C181.589 167.594 182.65 166.811 183.672 166.192C183.876 166.068 186.12 164.01 186.12 164.01C185.709 163.561 185.093 163.236 184.681 162.787C184.393 162.543 183.898 161.725 183.406 161.605C186.195 162.289 189.021 162.112 191.639 161.364C192.949 160.989 194.175 160.246 195.236 159.463C195.645 159.216 198.254 156.377 198.09 156.337C197.351 155.808 196.407 155.402 195.586 155.201C196.858 155.687 198.128 155.476 199.397 155.266C200.461 155.179 201.731 154.969 202.876 154.554C205.535 153.641 208.15 152.196 209.655 149.608C209.284 148.995 208.708 148.506 207.68 147.732C207.844 147.773 208.049 147.649 208.253 147.525C209.686 147.355 211.24 146.692 212.63 145.99C213.939 145.615 215.289 145.077 216.474 144.498C217.7 143.755 218.926 143.012 220.152 142.27C221.213 141.487 222.603 140.784 223.541 139.797C222.761 139.431 221.941 139.23 221.121 139.029C222.266 138.614 223.29 138.692 224.395 138.441C225.541 138.026 226.726 137.447 227.788 136.664C228.237 136.253 233.091 131.356 232.639 131.071C231.447 130.257 231.035 129.808 229.231 129.366C230.212 128.911 231.113 128.784 232.094 128.329C233.075 127.874 234.057 127.419 234.914 126.76C239 124.283 242.303 120.746 245.894 117.452C247.689 115.806 249.484 114.159 251.156 112.308C249.847 112.683 248.373 113.017 246.9 113.351C242.232 113.945 237.564 114.539 233.311 116.279C231.757 116.941 230.039 117.563 228.485 118.225C227.3 118.804 225.789 119.999 224.396 120.005C224.313 119.637 224.433 119.144 224.514 118.816C224.511 118.12 224.508 117.423 224.505 116.727C224.585 116.399 224.502 116.031 224.174 115.95C224.05 115.746 223.681 115.829 223.517 115.789C222.412 116.04 221.471 116.331 220.447 116.253C219.422 116.176 218.317 116.426 217.212 116.677C214.962 117.343 213.083 118.621 211.739 120.552C211.941 119.732 212.142 118.912 212.219 117.887C207.177 117.172 202.642 120.06 199.299 123.762C199.339 123.598 199.327 120.812 199.327 120.812C198.179 120.53 197.074 120.781 195.805 120.991C195.436 121.075 195.068 121.158 194.864 121.282C192.449 121.907 190.242 123.105 188.571 124.956C187.877 125.655 186.079 126.606 186.001 127.63C186.042 127.466 186.082 127.302 185.958 127.098C185.915 126.565 185.246 123.619 185.41 123.659C182.875 124.776 180.297 125.361 178.093 127.255C176.991 128.202 176.013 129.354 175.362 130.586C175.037 131.202 174.712 131.818 174.511 132.638C174.468 132.105 174.424 131.573 174.217 131C174.05 130.264 173.679 129.651 173.307 129.038C173.183 128.834 173.183 128.834 173.019 128.793C172.651 128.877 172.283 128.961 171.75 129.004C169.54 129.505 167.497 130.743 165.866 132.43C164.234 134.117 162.851 136.212 162.247 138.673C162.16 137.608 161.91 136.503 161.619 135.562C161.619 135.562 161.659 135.398 161.495 135.358C161.984 134.782 161.656 134.702 161.288 134.785C159.118 135.123 157.199 136.565 155.648 137.924C154.097 139.283 153.125 141.827 152.233 144.043C152.435 143.223 152.227 142.65 152.224 141.954C152.097 141.053 152.339 140.069 152.58 139.085C150.739 139.502 149.308 140.369 147.674 141.359C146.08 142.186 144.65 143.052 143.427 144.492C142 146.055 140.861 147.862 140.05 149.75C139.966 149.382 139.261 147.296 139.261 147.296C136.481 148.701 133.989 150.351 131.581 152.369C128.968 154.511 127.219 157.386 125.634 160.302C125.792 158.949 125.746 157.72 125.207 156.371C116.63 162.267 115.048 165.879 114.89 167.232C114.927 166.371 114.964 165.511 115.002 164.65C109.681 165.78 107.124 171.24 103.904 175.146C104.839 173.462 110.21 165.04 110.981 163.316C110.981 163.316 111.021 163.152 111.061 162.988C110.937 162.784 110.814 162.579 110.609 162.703C110.077 162.746 109.504 162.954 108.972 162.997C111.179 161.799 112.934 160.317 114.606 158.466C116.358 156.287 117.822 153.863 118.834 151.155L118.874 150.991C118.874 150.991 118.874 150.991 118.915 150.827C118.995 150.499 118.748 150.09 118.42 150.01C118.255 149.969 118.091 149.929 117.927 149.889C120.788 148.156 123.029 145.401 124.409 142.609L124.45 142.445L124.49 142.281C124.57 141.953 124.323 141.544 124.035 141.299C123.379 141.138 122.887 141.018 122.23 140.857C123.62 140.154 124.886 139.247 125.988 138.3C127.499 137.105 128.886 135.706 130.108 134.267C130.597 133.691 131.127 132.952 131.576 132.54C132.024 132.128 132.801 131.797 132.306 130.98C132.182 130.776 131.894 130.531 131.73 130.491C131.155 130.002 129.759 129.311 128.982 129.643C130.167 129.064 134.287 125.031 134.328 124.867C135.755 123.304 137.098 121.372 137.99 119.156L138.03 118.992C138.11 118.664 137.903 118.091 137.575 118.011C136.919 117.85 136.427 117.729 135.77 117.568C136.956 116.989 138.142 116.41 139.079 115.423C140.63 114.064 141.974 112.133 142.825 110.081L142.865 109.917L142.906 109.753C143.228 108.44 140.114 108.372 138.721 108.378C140.603 107.796 142.237 106.806 143.748 105.611C145.911 103.881 147.58 101.333 148.428 98.5848L148.468 98.4207C148.549 98.0926 148.465 97.7243 148.137 97.6438C147.029 97.198 146.005 97.1206 144.94 97.2072C148.577 95.1428 151.224 91.4439 152.598 87.2591L152.638 87.095L152.679 86.931C152.759 86.6029 152.512 86.1943 152.183 86.1138C151.199 85.8723 150.175 85.7949 149.11 85.8815C152.298 84.2287 155.236 81.4709 156.653 77.8185C156.653 77.8185 156.653 77.8185 156.694 77.6544C156.774 77.3263 156.567 76.7537 156.239 76.6732C155.131 76.2274 153.778 76.0695 152.713 76.1561C156.759 73.844 159.811 69.2012 160.61 64.5272L160.65 64.3632C160.731 64.0351 160.443 63.7905 160.279 63.7503C159.623 63.5893 158.926 63.5923 158.353 63.7997C159.864 62.605 161.291 61.0419 162.226 59.3581C163.446 57.2223 164.377 54.842 164.817 52.341L164.857 52.177C164.898 52.0129 164.898 52.0129 164.774 51.8086C164.69 51.4403 164.402 51.1957 164.034 51.2793C163.461 51.4866 163.093 51.5702 162.48 51.9416C162.725 51.6538 162.765 51.4897 163.009 51.2019C165.455 48.3233 167.161 44.9154 168.291 41.0184C168.572 39.87 171.111 30.2312 171.715 27.7705C169.35 30.3209 167.229 32.5835 164.74 34.9297C162.292 37.1118 159.967 39.4982 158.054 42.3335C157.444 43.4013 156.835 44.4692 156.349 45.7414C156.188 46.3976 155.822 47.1776 155.825 47.874C155.243 45.992 154.253 44.3576 153.965 44.1131C153.677 43.8685 153.309 43.9521 153.064 44.24C150.009 48.1864 148.313 53.6836 148.582 58.9674C148.541 59.1315 148.541 59.1315 148.501 59.2955C148.164 57.1257 147.254 55.1632 146.842 54.7143C146.554 54.4698 146.062 54.349 145.818 54.6369C144.146 56.4878 142.722 58.7474 141.914 61.332C141.428 62.6041 141.23 64.1208 141.072 65.4735C140.824 65.0649 140.038 63.3067 139.627 62.8579C139.503 62.6536 139.503 62.6536 139.339 62.6133C139.011 62.5328 138.478 62.5761 138.358 63.0683L138.522 63.1085C136.853 65.6559 134.906 70.0481 135.249 73.6109C134.339 71.6484 134.086 69.8469 132.603 68.0918C132.603 68.0918 130.774 71.2954 130.529 71.5832C130.043 72.8554 129.517 74.2916 129.195 75.604C128.634 78.5972 129.015 81.2995 128.823 84.2091C128.287 83.5559 128.161 82.6552 127.665 81.838C127.17 81.0208 126.551 79.9993 126.056 79.1821C125.041 81.194 123.778 82.7974 123.214 85.0941C122.651 87.3908 122.579 89.8083 123.409 92.0989C122.706 90.709 121.635 89.4027 120.28 88.5484C119.828 88.2636 119.255 88.4709 119.134 88.9631C119.057 89.9876 118.493 92.2844 118.552 96.299C118.642 98.0603 118.731 99.8215 119.149 101.663C119.109 101.827 119.109 101.827 119.069 101.991C119.028 102.155 119.028 102.155 118.988 102.32C118.242 100.397 116.964 98.5183 115.605 96.9675C114.633 99.5118 113.373 101.812 112.853 104.641C112.333 107.47 112.469 110.46 113.342 113.283C113.011 112.506 112.351 111.649 111.816 110.995C111.528 110.751 110.213 109.732 110.169 109.2C109.404 112.317 108.72 115.106 108.94 118.464C108.989 120.39 109.407 122.231 110.029 123.949C109.574 122.968 108.915 122.111 108.215 121.417C108.215 121.417 108.092 121.213 107.928 121.173C107.6 121.092 107.231 121.176 106.987 121.464L106.946 121.628C104.962 126.88 107.162 133.508 107.187 139.079C106.528 138.222 106.073 137.241 105.413 136.383L105.29 136.179C104.962 136.098 104.593 136.182 104.513 136.51L104.472 136.674C103.46 139.382 102.94 142.212 102.912 145.161C102.797 147.047 103.051 148.848 103.469 150.69C103.432 151.55 103.599 152.287 103.766 153.024C103.766 153.024 103.766 153.024 103.642 152.819C103.023 151.798 102.364 150.94 101.745 149.919C101.621 149.715 101.457 149.674 101.293 149.634C100.965 149.554 100.72 149.842 100.804 150.21C100.541 155.537 100.153 160.66 99.6022 165.742C99.0077 170.292 98.2893 174.638 97.5308 179.148C97.3606 177.715 97.0264 176.242 96.8562 174.808C97.0049 171.366 97.358 167.801 98.1629 164.52C99.0916 161.443 99.8966 158.162 99.841 154.844C99.8782 153.983 99.7916 152.918 99.6647 152.018C99.6616 151.321 99.6586 150.625 99.6555 149.928C99.736 149.6 99.3554 146.898 99.5195 146.938C98.7425 147.269 97.4734 147.48 97.0679 148.424C97.9594 146.207 98.5229 143.911 98.7583 141.534C98.9503 138.624 98.6502 135.594 97.6134 132.73C97.5298 132.362 97.2017 132.281 96.8736 132.201C96.1369 132.368 95.524 132.74 94.9111 133.111C99.1336 124.407 94.4137 113.161 93.0269 114.56C92.3738 115.096 91.8444 115.836 91.3553 116.411C93.9403 108.001 89.3626 101.139 89.2388 100.935C88.7436 100.117 88.1338 101.185 87.8087 101.801C89.007 94.7902 86.0326 89.1906 86.0728 89.0266C85.9893 88.6582 85.4971 88.5375 85.2526 88.8253C84.8037 89.237 84.5189 89.6889 84.2341 90.1408C85.2775 85.179 84.148 79.8581 81.5078 75.7318C81.22 75.4873 81.0559 75.447 80.8114 75.7349C80.118 76.4344 79.7527 77.2144 79.5112 78.1987C74.9121 66.461 67.3595 63.2167 62.3116 51.8906ZM91.0737 182.782C90.5816 182.661 90.2937 182.417 89.8015 182.296L89.6375 182.256C89.0215 181.93 88.4458 181.441 87.6658 181.076C86.0625 179.813 84.2548 178.674 82.3667 177.863C79.0826 176.361 75.8821 175.228 72.762 173.767C72.9663 173.643 74.1921 172.901 74.48 173.145C72.4278 172.294 70.1713 171.566 68.1192 170.715C67.1751 170.31 66.2713 169.74 65.3272 169.334C65.0394 169.09 62.8201 167.502 62.6158 167.626C63.8013 167.047 65.1107 166.672 66.5438 166.502C65.0674 166.14 63.5104 166.106 62.037 166.44C61.4643 166.647 59.7403 165.877 59.0841 165.716C58.0998 165.474 57.3198 165.109 56.3757 164.703C55.4316 164.298 54.4876 163.892 53.7478 163.363C52.5159 162.713 52.7604 162.425 53.9057 162.01C51.8938 160.995 49.7611 160.472 47.5851 159.416C47.1332 159.131 42.2025 155.835 42.2025 155.835C43.549 154.6 44.9822 154.429 46.5763 153.603C44.7315 153.324 43.0105 153.25 41.3267 152.315C40.4229 151.746 39.519 151.176 38.4512 150.566C31.6695 145.598 29.9021 144.295 26.9894 143.406C29.574 144.214 32.5239 144.242 35.3128 144.926C38.634 145.567 41.6303 146.824 44.6668 147.917C44.4563 146.648 43.4287 145.874 43.0542 144.564C44.5709 144.763 46.131 145.493 47.5269 146.184C49.3748 147.159 50.9782 148.422 52.501 150.013C53.1603 150.87 53.8598 151.564 54.5995 152.093C53.6927 150.827 53.1541 149.477 52.7797 148.168C55.3673 149.672 57.6268 151.096 59.7254 153.176C60.1401 154.322 60.7189 155.507 61.4184 156.201C60.7963 154.483 60.5023 152.845 60.5364 151.288C61.1122 151.777 61.6879 152.267 62.0995 152.715C62.9631 153.449 63.7864 154.347 64.65 155.08C66.3369 156.712 67.8195 158.467 69.4661 160.262C69.3423 160.058 69.2185 159.854 69.2588 159.69C69.5497 160.631 70.2492 161.324 70.7847 161.977C70.2461 160.627 69.8717 159.318 70.0296 157.965C73.2765 160.327 74.9634 161.959 77.9255 164.772C78.3433 166.614 79.1697 168.208 80.4851 169.227C79.5783 167.961 79.0397 166.611 78.8696 165.178C83.3545 169.583 86.6601 175.959 91.145 180.364C85.4714 175.842 79.5936 171.443 73.6352 167.372C71.4501 164.227 69.0606 161.206 66.6309 158.349C67.9525 160.76 69.4381 163.212 70.964 165.5C70.2243 164.97 69.4845 164.441 68.7447 163.912C67.5531 163.097 66.4852 162.488 65.2935 161.673C62.5326 158.039 59.5272 154.693 56.3577 151.307C58.255 154.207 60.1926 156.944 62.2942 159.72C54.6118 154.879 46.8086 150.529 38.7207 146.632L38.6402 146.96C43.6111 150.093 48.4986 152.857 53.5098 155.826C55.1936 156.761 56.8372 157.86 58.6448 158.999C55.7352 158.807 52.9897 158.655 49.9995 158.791C53.2806 159.596 55.5742 159.463 58.976 159.776L60.0408 159.689C61.8484 160.828 67.847 164.735 68.299 165.02C70.8463 166.688 73.3535 168.521 75.8606 170.353C73.6877 169.994 71.4746 169.799 69.0571 169.728C71.9698 170.616 74.9227 171.341 77.9159 171.901C79.3954 172.96 80.7109 173.978 82.1904 175.037C85.5611 177.603 88.8916 180.333 92.3428 182.571C92.1385 182.695 91.4018 182.862 91.0737 182.782ZM97.1896 194.718C97.2359 195.947 97.4061 197.38 97.4525 198.609C97.7587 203.032 98.0247 207.619 98.331 212.042C97.7119 211.021 96.9289 209.959 96.2696 209.102C96.0622 208.529 95.8549 207.956 95.4835 207.344C96.0898 214.797 96.1209 212.544 96.5631 219.957C95.4922 218.651 94.6256 217.221 93.6351 215.586C93.8053 217.02 94.3439 218.369 94.9226 219.555C95.2569 221.028 95.2227 222.585 95.5167 224.223C95.6838 224.959 95.2844 227.296 95.532 227.705C94.913 226.683 94.4178 225.866 93.7988 224.845C93.3591 227.346 93.1238 229.723 92.5201 232.184C92.2383 233.332 91.9566 234.48 91.6749 235.629C91.4334 236.613 90.4583 238.461 90.7089 239.566L89.8764 236.579C88.7062 240.64 86.7157 244.5 84.4776 247.951C83.4189 249.43 82.3603 250.91 81.3016 252.39C81.6266 251.774 81.9919 250.994 82.317 250.378C84.4654 245.165 84.8092 239.51 85.6452 233.976C85.3171 233.895 83.3918 233.944 83.4351 234.477C83.751 231.772 84.723 229.227 86.2708 227.172C85.37 227.299 84.5095 227.262 83.7326 227.593C84.2063 223.535 86.0761 220.167 88.1099 216.84L87.9056 216.964C87.9458 216.8 87.9861 216.635 88.0263 216.471C87.0482 217.623 85.6986 218.161 84.5099 218.044C85.0734 215.747 85.5966 213.614 86.4882 211.398C86.8937 210.454 87.1352 209.47 87.5005 208.69C87.6212 208.198 88.2249 205.737 88.6335 205.489C88.2652 205.573 85.7703 206.526 85.6898 206.854C86.4978 204.269 87.6742 201.601 88.8505 198.933C89.0146 198.973 89.0548 198.809 89.095 198.645C90.1507 196.469 91.2063 194.293 92.4259 192.158C93.3206 190.638 94.2554 188.954 95.4379 187.679C95.2769 188.335 95.2398 189.196 95.2026 190.056C93.4566 193.628 91.2185 197.079 88.6926 200.286C91.1009 198.268 93.2615 195.841 94.9703 193.13C94.9361 194.687 94.738 196.203 94.7039 197.76C94.4654 199.441 94.4313 200.998 94.1929 202.679C91.831 205.926 89.5929 209.377 87.4786 213.032C89.8033 210.646 91.8402 208.015 93.8771 205.384C93.6417 207.761 93.2423 210.098 92.8026 212.599C92.363 215.1 86.4559 241.305 85.7996 241.144L86.1278 241.225C88.1987 237.037 89.3256 232.443 90.6166 227.89C91.9076 223.337 93.0345 218.744 93.8333 214.07C95.5981 205.459 96.7066 196.686 96.9546 187.877C97.2425 188.122 97.326 188.49 97.6139 188.734C97.7005 189.799 97.6664 191.356 97.5457 191.848C97.4682 192.873 97.267 193.693 97.1896 194.718ZM101.147 153.773C101.683 154.426 103.698 156.138 103.661 156.998C103.484 154.172 103.348 151.182 103.5 148.436C103.494 147.043 103.652 145.691 103.85 144.174C103.971 143.682 104.816 140.237 104.528 139.992C105.639 141.135 106.382 142.36 107.085 143.75C107.153 140.636 107.874 136.987 107.122 133.672C106.621 131.462 107.578 125.435 107.33 125.026C108.441 126.169 109.512 127.475 110.379 128.905C109.454 123.46 109.392 118.749 110.271 113.747C111.67 115.134 112.784 116.973 113.49 119.059C113.487 118.362 113.444 117.83 113.236 117.257C113.069 116.521 112.859 115.252 112.896 114.391C113.011 112.506 113.125 110.621 113.28 108.572C113.398 107.383 113.556 106.031 113.837 104.882C113.958 104.39 114.927 101.149 114.639 100.905C116.41 102.904 117.936 105.192 118.356 107.73C118.477 107.238 118.434 106.706 118.555 106.213C118.716 105.557 118.713 104.861 118.669 104.328C118.861 101.419 119.518 92.3618 119.558 92.1977C121.038 93.2564 122.396 94.8073 123.306 96.7697C123.303 96.0733 123.096 95.5006 122.929 94.7639C123.359 90.1736 123.675 87.4682 125.09 83.1193C128.761 88.7159 130.117 89.5703 130.243 90.471C128.192 80.4018 131.637 72.029 131.349 71.7845C132.915 73.9079 133.705 76.3626 135.231 78.6501C135.227 77.9537 135.06 77.217 134.893 76.4803C134.228 74.2299 138.162 65.2814 138.203 65.1174C138.122 65.4455 140.23 69.615 140.354 69.8193C140.961 68.055 141.199 66.3742 141.806 64.6099C142.738 62.2296 143.833 59.8896 145.341 57.9984C146.208 59.4285 146.87 60.9824 147.328 62.6601C147.411 63.0285 147.495 63.3968 147.743 63.8054C147.866 64.0097 148.195 64.0902 148.111 63.7219C148.068 63.1895 148.024 62.657 147.941 62.2887C148.817 56.5902 150.108 52.037 152.668 47.2734C153.739 48.5797 154.565 50.1738 155.147 52.0558C155.228 51.7277 155.144 51.3594 155.061 50.991C155.63 50.0872 155.544 49.0224 155.949 48.0783L155.989 47.9143C159.528 41.9992 165.65 36.8922 168.991 32.4938C169.031 32.3298 169.235 32.206 169.275 32.0419C167.133 38.6473 166.09 43.6091 162.598 50.753C161.784 51.9447 160.846 52.9321 160.36 54.2042C159.951 54.4518 159.707 54.7397 159.422 55.1916C160.403 54.7366 161.508 54.4859 162.613 54.2353C160.994 58.708 159.449 61.4597 156.926 65.3628C156.722 65.4866 156.314 65.7342 156.233 66.0623C157.214 65.6073 158.075 65.6445 158.895 65.8458C157.963 68.226 156.908 70.402 155.4 72.2932C154.057 74.2246 152.385 76.0756 150.754 77.7625C150.181 77.9698 149.772 78.2174 149.324 78.6291C151.165 78.2113 153.502 78.6107 155.103 79.1772C155.103 79.1772 151.153 84.6435 148.701 86.1291C147.68 86.7481 146.494 87.3269 145.473 87.9459C147.194 88.0203 148.751 88.0544 150.555 88.4971C148.119 93.4651 145.794 95.8515 141.919 99.5967C142.9 99.1417 143.962 98.3586 146.63 99.535C143.825 104.586 138.845 108.582 135.613 109.703C137.294 109.941 138.934 110.344 140.534 110.91C139.64 112.43 138.785 113.786 137.643 114.897C136.461 116.172 135.319 117.283 134.012 118.354C132.907 118.605 131.762 119.019 131.028 119.883C132.746 119.261 134.467 119.335 135.903 119.862C135.009 121.381 134.114 122.901 132.891 124.34C132.077 125.532 131.059 126.848 129.957 127.795C128.446 128.989 126.608 130.104 125.137 131.134C127.103 130.921 129.152 131.076 131.08 131.723C130.019 132.506 128.917 133.453 127.979 134.44C127 135.592 125.858 136.703 124.756 137.65C122.512 139.708 120.06 141.194 117.569 142.844C119.206 142.55 120.679 142.216 122.444 142.822C122.28 142.782 119.184 146.893 118.899 147.344C118.206 148.044 117.636 148.948 116.819 149.443C115.962 150.102 114.817 150.517 113.795 151.136C114.984 151.254 116.172 151.371 117.361 151.489C115.243 154.448 113.126 157.407 110.845 160.326C110.436 160.574 109.987 160.985 109.579 161.233C108.926 161.768 108.108 162.264 107.415 162.963C107.375 163.127 107.334 163.291 107.499 163.331L107.663 163.372C107.827 163.412 107.991 163.452 108.031 163.288C108.195 163.328 108.563 163.245 108.727 163.285C109.096 163.201 109.424 163.282 109.752 163.362C108.693 164.842 107.635 166.322 106.576 167.801C103.808 171.992 101.741 176.876 99.3848 181.516C99.6696 181.064 100.815 180.65 101.223 180.402C101.877 179.866 102.53 179.331 103.223 178.632C104.406 177.356 105.464 175.877 106.359 174.357C108.024 171.113 110.677 168.807 113.37 166.337C113.575 166.213 113.983 165.966 114.187 165.842L114.147 166.006C113.132 168.018 112.847 168.47 112.816 170.723C113.547 169.163 122.39 158.636 123.985 157.81C124.353 157.726 124.597 157.439 124.966 157.355C124.926 157.519 124.885 157.683 125.009 157.887C124.365 160.512 124.254 163.094 124.142 165.675C127.634 158.531 132.318 152.202 138.731 148.036C138.654 149.06 138.617 149.921 138.539 150.945C138.422 152.134 138.304 153.322 138.106 154.839C139.331 154.096 140.022 152.7 140.18 151.348C141.563 149.252 142.907 147.321 144.702 145.674C146.578 143.699 148.863 141.477 151.398 140.36C150.785 140.731 150.673 143.313 150.512 143.969C150.15 145.445 149.788 146.922 149.549 148.603C150.571 147.984 151.345 146.956 151.791 145.848C155.255 141.654 156.796 138.206 161.455 135.522C161.749 137.16 161.922 139.289 162.464 141.335C162.953 140.76 163.114 140.103 163.275 139.447C164.739 137.024 166.287 134.968 168.327 133.034C169.918 131.511 171.428 130.316 173.267 129.202C173.474 129.775 173.682 130.347 173.725 130.88C174.099 132.189 174.474 133.498 175.136 135.052C175.217 134.724 175.421 134.6 175.461 134.436C176.802 131.808 178.473 129.958 180.473 128.187C182.024 126.828 183.658 125.838 185.333 124.683C185.336 125.38 185.379 125.912 185.382 126.609C185.388 128.002 185.395 129.394 185.36 130.951C186.014 130.416 186.379 129.636 186.744 128.856C189.963 124.95 193.805 122.762 198.878 121.223C198.562 123.929 197.467 126.269 196.451 128.281C197.801 127.742 198.943 126.631 199.469 125.195C203.267 122.474 205.877 119.636 211.399 117.686C211.284 119.571 211.046 121.252 210.891 123.301C211.176 122.849 211.461 122.397 211.746 121.945C216.479 117.541 218.732 117.572 224.378 115.826C223.979 118.163 223.003 120.011 222.276 122.268C223.87 121.441 225.424 120.779 227.018 119.952C228.776 119.166 230.699 118.42 232.621 117.675C236.261 116.307 240.025 115.143 243.996 114.552C245.265 114.341 246.535 114.131 247.844 113.757C247.231 114.128 246.578 114.663 245.965 115.035C242.78 117.384 240.21 120.058 237.313 122.652C234.416 125.246 231.314 127.963 227.179 128.514C227.466 128.759 231.286 130.913 231.326 130.749C225.494 136.797 222.176 136.853 221.155 137.472C220.13 137.394 219.065 137.481 218.165 137.608C220.009 137.887 221.158 138.168 222.43 138.654C220.223 139.852 218.712 141.047 217.038 142.201C215.484 142.864 214.054 143.73 212.46 144.557C210.129 145.55 208.203 145.6 205.746 145.692C205.746 145.692 205.582 145.652 205.541 145.816C205.009 145.86 204.517 145.739 203.944 145.946C205.26 146.965 207.683 148.429 208.915 149.079C208.627 148.834 206.095 150.648 205.523 150.855C204.541 151.31 203.396 151.725 202.415 152.18C201.434 152.635 200.288 153.05 199.019 153.26C197.79 153.307 196.478 152.985 195.289 152.867C194.961 152.786 192.872 152.796 192.748 152.591C193.943 154.102 196.078 155.322 197.803 156.092C197.967 156.133 196.701 157.04 196.536 156.999C195.964 157.207 195.555 157.454 194.983 157.662C193.837 158.076 192.528 158.451 191.383 158.866C188.6 159.574 185.857 160.119 183.072 160.131C181.635 159.605 180.119 159.407 178.769 159.945C182.629 161.936 179.261 160.066 185.545 163.521C181.375 165.628 177.815 166.668 172.9 166.854C171.504 166.163 169.823 165.925 168.393 166.792C171.965 168.538 169.213 166.993 175.249 170.039C162.066 172.023 156.525 169.794 154.848 170.252C155.875 171.026 161.134 174.403 161.298 174.443C156.308 176.35 152.418 176.612 147.05 176.513C145.859 175.699 144.546 175.377 143.237 175.752C144.512 176.934 147.059 178.603 148.415 179.457C141.088 180.964 136.213 180.985 128.506 179.79C128.998 179.911 129.574 180.4 130.026 180.685C132.078 181.536 133.885 182.675 135.897 183.691C134.548 184.229 132.827 184.155 131.394 184.325C130.493 184.452 129.428 184.539 128.568 184.501C127.339 184.548 125.494 184.269 124.346 183.987C123.361 183.746 122.541 183.545 121.64 183.672C123.649 183.99 125.497 184.966 126.936 186.188C122.185 186.414 118.57 184.136 112.794 184.284C109.147 184.259 105.832 185.011 102.52 186.46C106.829 188.038 111.051 188.552 115.356 189.435C121.426 190.924 129.617 190.151 130.313 190.147C129.66 190.683 128.564 193.023 125.989 194.304L126.112 194.509C126.112 194.509 131.594 192.723 131.963 192.639C133.436 192.305 134.91 191.971 136.507 191.841C138.104 191.711 140.478 191.25 142.078 191.816C141.14 192.804 139.915 193.547 138.813 194.494C143.765 193.448 148.473 192.69 153.723 193.977C152.624 195.621 150.909 196.94 148.947 197.85C150.708 197.76 152.262 197.098 153.568 196.027C157.784 195.148 161.635 195.049 166.145 195.807C165.535 196.875 164.761 197.903 164.027 198.766L163.823 198.89C163.823 198.89 163.823 198.89 163.987 198.93C163.294 199.63 162.56 200.494 161.538 201.113C163.216 200.655 164.851 199.664 166.033 198.389C170.658 197.262 174.92 197.612 179.024 199.315C178.984 199.479 177.597 200.878 174.616 203.104C175.923 202.033 178.38 201.94 179.813 201.77C184.073 201.423 188.502 202.51 192.647 204.048C191.26 205.447 190.077 206.723 188.691 208.122C191.885 207.862 194.956 207.398 198.357 207.71C200.57 207.906 203.112 208.181 205.288 209.237C204.885 210.877 202.762 212.443 201.248 212.942C201.821 212.734 203.093 213.22 203.625 213.177C204.158 213.134 204.566 212.886 205.099 212.843C206.612 212.345 208.538 212.295 210.218 212.534C211.079 212.571 212.187 213.017 213.171 213.258L216.288 214.023L217.765 214.385L218.421 214.546C217.607 215.738 216.26 216.973 215.075 217.551L215.239 217.592C215.035 217.715 214.83 217.839 214.626 217.963C215.158 217.92 215.527 217.836 216.099 217.629C222.411 218.134 225.856 218.979 230.041 220.353C229.066 222.201 227.843 223.64 225.964 224.919C226.128 224.959 226.168 224.795 226.332 224.835C225.883 225.247 225.475 225.494 225.026 225.906C231.564 221.944 234.21 227.464 251.974 233.039C251.605 233.123 251.277 233.042 251.073 233.166C242.217 231.689 232.683 234.394 223.001 231.323C223.289 231.567 223.617 231.648 223.781 231.688C224.605 232.586 225.264 233.443 225.759 234.261C221.416 234.239 217.56 232.945 213.576 230.75C213.7 230.954 213.988 231.199 214.112 231.403C213.536 230.914 212.96 230.425 212.344 230.1C213.455 231.242 214.362 232.508 214.901 233.858C211.465 235.102 201.445 229.861 198.078 227.991C197.626 227.706 197.214 227.258 196.762 226.973C196.886 227.177 197.05 227.217 197.01 227.381C196.846 227.341 196.846 227.341 196.682 227.301C196.806 227.505 197.709 228.075 198.867 230.446C192.71 227.892 186.87 222.633 185.468 220.549C186.176 223.332 186.721 226.075 186.774 228.696C183.53 227.031 182.796 227.895 176.463 222.515C176.216 222.106 175.928 221.861 175.804 221.657C176.674 223.784 177.011 225.953 177.144 228.247C172.504 225.891 169.297 223.365 165.063 220.066C164.692 219.453 164.444 219.044 164.073 218.431C165.026 220.926 165.651 223.34 165.908 225.838C165.744 225.798 164.8 225.393 164.676 225.188L162.336 224.092C160.94 223.402 159.296 222.303 157.9 221.613C155.437 220.313 153.298 218.397 151.444 216.029C151.113 215.252 150.617 214.434 150.082 213.781C150.828 215.704 151.246 217.545 151.499 219.347C141.975 214.923 137.685 208.305 136.698 207.367C138.558 211.128 138.103 210.147 139.552 213.459C135.327 212.248 131.987 207.429 128.242 203.553C128.325 203.922 128.613 204.166 128.697 204.535C129.235 205.884 129.446 207.153 129.124 208.466C120.212 203.671 113.044 194.607 104.34 190.385C103.6 189.855 102.82 189.49 102.04 189.125C101.26 188.759 100.768 188.639 100.031 188.806C101.269 190.849 103.037 192.152 104.764 193.619C106.989 196.6 114.146 202.878 115.832 204.509C115.096 204.676 114.523 204.884 113.827 204.887C117.931 206.589 121.586 208.704 125.041 211.638C124.183 212.297 123.323 212.26 122.422 212.387C122.79 212.304 124.434 213.403 124.926 213.523C125.542 213.848 126.158 214.173 126.734 214.662C127.638 215.232 128.705 215.842 129.569 216.575C131.788 218.164 134.295 219.996 136.27 221.872C135.66 222.94 133.614 223.481 132.466 223.2C133.33 223.933 134.722 223.927 135.666 224.333C136.775 224.778 137.966 225.593 138.994 226.367C141.213 227.955 143.392 229.707 145.163 231.706C144.305 232.366 143.324 232.82 142.219 233.071C141.891 232.991 141.563 232.91 141.235 232.83C146.534 236.043 150.722 238.114 155.615 242.271C154.758 242.93 153.204 243.593 151.975 243.639C151.647 243.559 151.155 243.438 150.786 243.521L150.622 243.481C150.458 243.441 150.294 243.401 150.13 243.36C150.254 243.565 150.418 243.605 150.582 243.645C150.582 243.645 150.582 243.645 150.706 243.85C151.774 244.459 152.882 244.905 153.95 245.515C157.2 248.573 159.995 250.65 162.715 254.449C162.307 254.696 161.325 255.151 160.793 255.194C160.384 255.442 159.852 255.485 159.32 255.529C159.648 255.609 159.936 255.854 160.428 255.974C161.412 256.216 162.152 256.745 162.851 257.439C165.034 259.887 166.433 261.274 168.822 264.295C168.085 264.462 167.185 264.589 166.2 264.348C166.324 264.552 166.652 264.632 166.776 264.837C166.612 264.797 166.612 264.797 166.448 264.756C169.955 270.313 173.83 275.785 177.866 280.602C171.208 275.838 166.81 272.498 161.217 267.647C160.514 266.257 159.647 264.827 158.7 263.725C159.941 266.465 160.774 269.452 161.278 272.358C159.591 270.727 158.069 269.136 156.626 267.217C155.144 265.461 154.07 263.459 152.791 261.58C152.711 261.908 152.024 264 152.311 264.245C150.665 262.45 149.058 260.49 147.492 258.367C146.873 257.345 146.214 256.488 145.759 255.506C145.552 254.934 145.14 254.485 144.769 253.872C144.645 253.668 143.862 252.606 143.942 252.278C143.781 252.934 143.58 253.754 143.583 254.451C143.502 254.779 142.976 256.215 143.264 256.46C139.308 251.315 136.829 246.533 134.468 240.562C134.554 241.626 134.681 242.527 134.768 243.592C134.57 245.109 134.248 246.421 133.434 247.613C131.784 245.121 128.608 240.342 125.287 230.483C125.294 231.876 125.464 233.309 125.798 234.782C125.352 235.89 125.111 236.875 124.705 237.819C121.078 232.754 118.719 227.48 117.259 221.382C116.992 226.013 118.178 225.434 117.011 230.191C113.383 225.127 111.186 219.196 110.666 212.808C110.585 213.136 110.465 213.628 110.548 213.996L110.588 213.832C109.982 215.596 108.883 217.24 107.66 218.679C107.496 218.639 107.496 218.639 107.168 218.559C107.171 210.037 104.76 202.141 102.151 195.761C101.984 195.024 101.777 194.452 101.57 193.879C103.136 196.003 104.866 198.166 106.432 200.29C107.924 204.134 108.639 208.31 108.657 212.489C109.258 209.331 109.038 205.973 108.286 202.658C109.728 204.577 111.171 206.496 112.817 208.292C113.538 213.86 114.464 219.305 115.389 224.75C115.039 219.794 114.69 214.838 114.136 210.006C115.454 211.721 116.813 213.272 118.132 214.987C119.382 219.816 121.001 224.561 122.619 229.306C121.864 225.295 120.945 221.243 119.862 217.151C122.292 220.008 124.557 222.825 126.987 225.682C128.401 230.551 129.856 235.256 131.475 240.001C130.76 235.826 129.677 231.733 128.758 227.682C129.417 228.539 130.116 229.232 130.776 230.09C132.546 232.09 134.193 233.885 135.963 235.885C137.501 240.958 139.08 245.867 140.822 250.817C139.983 246.437 138.817 241.976 137.61 237.68C138.433 238.578 139.256 239.475 139.956 240.169C140.491 240.822 141.231 241.351 141.767 242.004C142.386 243.026 143.661 244.208 144.113 244.493C145.979 249.647 147.845 254.801 150.08 259.871C148.953 255.247 147.459 250.706 145.923 246.329C147.035 247.471 148.31 248.653 149.381 249.96C150.616 251.306 151.851 252.653 153.086 253.999L153.624 255.349C155.032 258.825 155.738 260.911 157.391 264.1C156.518 261.277 155.645 258.454 154.609 255.59C158.973 260.487 163.173 265.344 167.293 270.529L167.497 270.405C162.22 262.849 156.289 255.829 150.319 248.972C149.619 248.279 148.92 247.586 148.424 246.768C150.765 247.864 153.064 249.124 155.445 250.056C152.445 248.103 149.446 246.149 146.242 244.32C143.197 241.138 140.151 237.956 137.146 234.609C140.965 236.764 144.949 238.959 148.809 240.949C144.082 237.529 139.275 234.436 134.428 231.508C133.605 230.61 132.781 229.712 131.998 228.651C131.051 227.549 130.268 226.487 129.281 225.549C132.936 227.663 136.836 229.49 140.733 230.62C135.725 228.347 130.878 225.419 126.316 222.039C124.833 220.283 123.514 218.569 122.156 217.018C125.152 218.275 128.148 219.531 131.349 220.665C127.857 218.59 124.161 216.64 120.425 214.854C118.943 213.099 117.624 211.384 116.142 209.629C117.866 210.4 119.67 210.842 121.555 210.957C119.627 210.31 117.903 209.539 116.095 208.4C114.576 207.505 113.669 206.239 112.598 204.933C111.651 203.831 110.58 202.525 109.673 201.259C106.912 197.625 104.111 194.155 101.35 190.521C100.978 189.908 99.8642 188.069 99.2483 187.744C104.869 189.645 110.45 191.71 115.907 193.57C119.2 197.161 122.738 200.464 126.48 203.643C123.967 200.418 121.25 197.316 118.492 194.378C122.8 195.957 127.149 197.372 131.458 198.951C131.786 199.031 131.95 199.071 132.238 199.316C132.894 199.477 133.674 199.842 134.33 200.003C137.71 204.659 141.459 209.231 145.247 213.639C142.523 209.144 139.555 204.937 136.423 200.69C139.623 201.824 142.824 202.957 145.86 204.049C149.293 211.327 154.892 217.57 161.383 221.598C155.709 217.075 150.89 211.197 147.625 204.656C152.057 206.439 156.57 207.894 161.083 209.349L160.879 209.473C163.77 214.704 167.722 219.153 172.449 222.573C168.539 218.657 165.407 214.41 162.56 209.712C163.544 209.953 164.652 210.399 165.636 210.64C168.221 211.448 170.682 212.052 173.266 212.86L173.062 212.984C175.049 217.645 178.385 221.769 182.168 224.784C179.039 221.233 176.646 217.516 174.702 213.386C178.763 214.556 182.989 215.767 187.05 216.937C188.625 221.15 191.962 225.273 195.577 227.552C192.779 224.778 190.058 220.98 188.486 217.463C190.783 218.027 193.039 218.754 195.336 219.318C198.598 225.162 204.067 229.808 210.057 231.626C204.801 228.945 200.235 224.868 197.14 219.761C198.289 220.042 199.273 220.284 200.381 220.73L207.887 222.745L210.184 223.308C214.294 226.404 218.609 229.376 222.964 232.183C219.838 229.329 216.467 226.763 213.261 224.237L217.65 225.488C223.556 226.937 230.077 228.711 236.024 229.996L234.34 229.061C229.787 227.77 226.177 226.884 221.624 225.593C219.327 225.03 217.071 224.302 214.938 223.779C213.954 223.538 212.846 223.092 211.698 222.81C211.205 222.689 210.837 222.773 210.345 222.652C210.181 222.612 209.401 222.247 209.237 222.206C213.657 221.204 218.037 220.365 222.668 220.632C217.582 219.384 212.258 219.817 207.472 221.6L207.596 221.804C205.3 221.241 203.043 220.513 200.582 219.909C199.434 219.628 198.326 219.182 197.177 218.9C201.753 215.848 207.278 214.595 212.852 215.267C206.823 213.614 200.273 214.79 195.373 218.457C191.476 217.327 187.375 216.321 183.478 215.191C188.176 212.344 193.371 210.313 198.896 209.06C193.08 209.372 187.434 211.118 182.531 214.089L183.15 215.111C178.76 213.86 174.247 212.405 169.858 211.154C175.377 208.508 181.104 206.434 186.954 204.565C180.445 205.577 174.062 207.49 167.97 210.343L168.094 210.548C167.274 210.346 166.618 210.185 165.837 209.82C163.417 209.052 160.996 208.284 158.74 207.557C163.027 204.261 168.221 202.23 173.626 201.469C167.766 201.249 161.712 203.242 157.14 206.99C154.431 205.978 151.559 204.926 148.85 203.913C148.522 203.833 148.358 203.793 148.07 203.548C151.992 201.032 156.122 199.088 160.746 197.961C155.791 198.311 152.311 199.023 148.145 201.827L146.467 202.285C142.487 200.787 138.67 199.329 134.649 197.994C138.457 197.363 142.1 196.692 145.783 195.856C141.196 196.122 136.569 196.552 132.065 197.186C131.737 197.106 131.409 197.025 131.121 196.781C120.411 192.936 109.865 189.131 99.1153 185.45C99.1153 185.45 106.597 181.894 106.761 181.934C113.106 180.882 119.826 181.139 126.389 182.749C121.3 180.805 115.806 179.805 110.318 180.198L121.929 174.698C127.225 177.215 132.926 178.788 138.745 179.172C133.496 177.884 128.531 176.144 123.523 173.872L133.744 169.074C139.86 171.792 146.178 173.69 152.532 174.727C146.747 172.786 141.002 170.681 135.338 168.248L146.5 163.16C155.328 167.587 155.414 168.651 164.431 169.472C159.181 168.184 153.186 164.974 148.054 162.498L159.052 157.369C165.007 160.743 172.479 164.316 178.995 164.697C172.885 163.372 166.109 159.796 160.442 156.666L166.533 153.813L171.235 151.662C177.061 153.439 183.833 156.318 189.903 157.807C184.65 155.823 178.327 152.532 172.994 150.876L183.828 145.707C189.411 148.468 196.224 151.183 202.204 150.911C196.753 150.443 190.513 147.521 185.381 145.045L196.584 139.792C202.449 141.405 208.556 142.034 214.373 141.721C208.922 141.254 203.756 140.334 198.546 138.882L201.49 137.517L210.934 133.051C215.524 133.482 220.155 133.748 224.702 133.646C220.889 132.885 216.995 132.451 213.141 131.853L218.824 129.247L227.491 125.112C230.271 123.707 233.215 122.342 235.827 120.201L235.376 119.916C235.416 119.752 235.211 119.875 235.211 119.875L235.007 119.999L234.435 120.207C234.066 120.29 233.658 120.538 233.289 120.621L231.163 121.491C229.773 122.194 228.219 122.856 226.829 123.559L218.162 127.694L210.108 131.457L207.368 132.698C210.708 128.3 214.336 124.146 218.5 120.645C213.148 124.028 208.374 128.597 204.793 133.98L200.868 135.799L195.104 138.734C198.602 132.983 202.676 127.721 207.449 123.152C201.692 127.479 198.386 130.321 194.727 136.728L193.51 139.56L182.144 144.772C185.23 138.572 188.768 132.657 192.594 126.987C187.66 132.211 185.462 135.498 182.175 142.519L180.998 145.187L170.205 150.191C173.288 143.295 176.74 136.315 181.343 130.314C175.755 136.074 171.691 143.425 168.446 150.978L166.075 152.135L158.594 155.691C160.34 152.119 161.674 148.099 163.544 144.731C165.534 140.871 167.853 137.092 170.335 133.353C167.605 136.683 165.123 140.422 162.804 144.202C160.485 147.981 158.702 152.413 156.836 156.477L157 156.518L146.779 161.315C149.664 155.935 152.218 149.779 154.815 144.155C151.153 149.866 148.026 156.229 144.816 162.225L136.966 165.865C139.362 161.061 141.966 156.83 143.869 151.905C140.901 156.916 137.684 161.519 135.004 166.775L125.191 171.324C127.46 165.62 130.964 161.262 134.301 156.167C130.184 160.896 127.408 162.998 125.058 169.031L124.21 171.779L110.717 177.861C113.073 173.221 116.335 169.848 119.431 165.737C115.351 169.606 111.271 173.475 108.755 178.771L98.7378 183.445C102.985 171.094 107.233 158.744 111.808 146.474C112.867 144.995 114.619 142.816 115.882 141.212C118.578 139.439 121.314 137.501 123.887 135.524C120.494 137.3 117.265 139.117 113.997 141.098C115.089 138.061 116.142 135.189 117.399 132.193C122.426 129.426 127.329 126.454 132.272 123.319C127.406 125.43 122.828 127.785 118.21 130.305C119.386 127.636 120.603 124.804 121.943 122.176L124.03 121.471C129.097 118.54 132.037 116.478 136.857 113.139C131.951 115.413 127.332 117.933 122.714 120.452C123.85 117.948 125.15 115.484 126.451 113.02C127.02 112.117 127.466 111.009 128.035 110.105L130.202 109.071C134.452 106.635 136.495 105.397 140.622 102.757C136.532 104.537 132.731 106.561 128.93 108.585C130.271 105.957 131.571 103.493 132.911 100.865C136.384 98.7607 139.897 96.4919 143.123 93.9787C139.975 95.4674 136.991 96.9963 133.967 98.6894C135.552 95.7736 137.177 92.6938 138.762 89.7781C142.479 87.3855 146.073 84.7887 149.543 81.9876C146.355 83.6403 143.126 85.4572 140.062 87.3142C140.997 85.6304 141.932 83.9466 142.867 82.2627L145.399 80.449C149.03 76.9916 150.376 75.7567 153.719 72.0548C150.494 74.5681 147.228 77.2454 144.127 79.963C144.167 79.7989 144.371 79.6751 144.411 79.5111C144.492 79.183 147.176 74.6236 153.556 62.7966L158.19 54.5415L160.425 50.3938C161.115 48.9979 161.97 47.6422 162.372 46.0016L162.084 45.7571C160.252 48.2642 158.831 51.2202 157.286 53.9719L152.652 62.227C152.76 58.949 152.705 55.6308 152.445 52.4364C151.807 56.4541 151.497 60.5524 151.352 64.6908L145.743 74.7938C145.851 71.5158 145.755 68.3617 145.536 65.0032C144.978 68.6928 144.864 70.5779 144.798 74.3883L145.012 76.3538L143.507 78.9415C142.817 80.3374 142.003 81.5291 141.313 82.9251C141.257 79.6069 141.038 76.2484 140.49 72.8094C140.18 76.9077 140.273 79.3654 140.331 83.3801L140.133 84.8968C139.523 85.9646 135.948 92.7402 135.338 93.8081C135.156 89.5891 133.122 83.6985 132.612 79.3991C132.265 84.3578 133.973 90.8643 134.159 95.7797C134.038 96.2719 134.038 96.2719 129.487 104.895C129.262 100.144 126.94 94.0089 126.346 89.3411C126.247 94.7084 128.203 101.623 128.432 107.071C127.457 108.919 126.482 110.767 125.547 112.451C125.506 112.615 125.262 112.903 125.222 113.067C124.915 108.644 122.514 102.837 121.839 98.4969C121.861 103.372 123.64 107.461 123.99 112.417L124.491 114.627C122.501 118.487 120.714 122.223 118.888 126.123C118.576 120.307 116.168 113.107 115.487 107.374C115.351 113.602 117.269 121.377 117.625 127.726L117.752 128.627C117.671 128.955 117.427 129.243 117.306 129.735C115.238 134.619 113.498 139.584 111.635 144.345C111.616 140.166 111.598 135.987 111.211 131.892C110.62 137.139 110.356 142.466 110.257 147.833C109.044 151.362 107.706 154.686 106.493 158.215C106.394 154.364 106.131 150.473 105.664 146.706C105.357 151.501 105.214 156.336 105.236 161.211C102.564 168.556 99.8524 176.065 97.3448 183.451C97.2613 183.082 97.218 182.55 97.1344 182.182C100.048 173.852 101.642 163.808 101.147 153.773ZM96.4935 185.503C96.5771 185.871 96.4966 186.199 96.2521 186.487C95.5154 186.654 89.3803 188.976 88.8912 189.551C88.9314 189.387 61.1223 200.653 45.8926 212.396C45.8926 212.396 45.9329 212.232 45.7688 212.192C45.3511 210.35 44.6082 209.124 45.9981 208.422C60.7106 200.204 75.386 192.847 95.5092 185.261C95.6733 185.302 96.1654 185.422 96.4935 185.503ZM70.9004 67.2161C74.073 71.299 76.515 76.9419 78.3007 82.4238C77.9262 81.1145 79.1087 79.8393 79.9662 79.18C82.1203 84.5784 82.6741 89.4102 82.4943 95.1057C82.5346 94.9416 82.6151 94.6135 82.6553 94.4495C83.0206 93.6695 83.714 92.9699 84.3671 92.4345C84.1628 92.5583 85.1192 95.7496 85.2027 96.118C85.4131 97.3871 85.6638 98.4921 85.7102 99.721C85.9267 102.383 86.0597 104.677 85.7841 107.218C85.9018 106.029 87.7003 105.079 88.5174 104.584C88.1088 104.832 89.944 112.239 89.9069 113.099C89.7953 115.681 89.6435 118.426 89.532 121.008C89.5258 119.615 91.5286 118.541 92.386 117.882C92.386 117.882 93.593 122.178 93.6766 122.546C93.9705 124.184 94.2645 125.821 94.1902 127.542C94.1652 131.189 93.5646 134.346 92.3913 137.71C92.512 137.218 93.614 136.271 94.0226 136.024C94.4715 135.612 95.1679 135.609 95.7003 135.566C96.4956 139.413 96.5543 143.428 96.161 147.158C95.7988 148.634 95.3127 149.906 95.1146 151.423C95.0341 151.751 95.3219 151.996 95.5665 151.708L95.7708 151.584C96.3837 151.213 97.2009 150.717 97.854 150.182C97.8138 150.346 97.7735 150.51 97.7766 151.206C97.665 153.788 97.7578 156.246 97.5999 157.598C97.1663 161.492 96.315 163.544 95.7516 165.841C95.4296 167.154 95.2314 168.67 95.0735 170.023C94.3153 165.315 93.7212 160.647 92.9631 155.939C92.0378 150.494 94.9046 140.936 94.9448 140.772C93.4001 143.524 92.3073 146.56 91.8305 149.922C91.2828 146.483 90.571 143.003 90.0635 139.4C90.7788 134.358 91.2897 129.44 91.5128 124.277C90.5872 128.05 89.9896 131.904 89.392 135.757C88.7638 132.646 87.9715 129.495 87.1793 126.344C86.9719 125.771 86.9286 125.239 86.7212 124.666C87.0279 119.872 87.3345 115.077 87.1088 110.326C86.5917 113.851 86.0344 117.541 85.6813 121.107C83.6388 113.127 81.3919 105.271 78.981 97.3744C78.8572 97.1701 78.8975 97.0061 78.7736 96.8018C79.3712 92.9481 79.845 88.8901 79.9504 84.9157C79.1857 88.0327 78.4613 90.9856 77.8606 94.1428C76.697 90.3788 75.6973 86.6551 74.4934 83.0551L72.2496 75.8955C71.4604 73.4408 70.631 71.1502 69.4332 68.9432C70.6835 73.772 72.0978 78.641 73.5524 83.346C75.2144 88.6237 76.508 93.9849 78.3742 99.1387C76.1396 94.0684 71.9395 89.2116 68.2748 85.008C71.8218 90.4003 74.171 93.5855 77.3497 99.0613L78.7518 101.145C79.9588 105.441 81.206 109.573 82.2489 113.829C79.0362 109.911 75.6191 106.116 72.1215 102.649C75.9966 108.121 80.5682 113.591 82.7905 115.875C83.8304 119.435 84.666 123.119 85.5016 126.802C85.8358 128.276 86.17 129.749 86.5042 131.222C83.1243 126.567 79.7444 121.911 76.12 117.544C79.4627 123.06 81.7717 126.409 85.523 131.677L86.9653 133.597C87.51 136.339 88.0547 139.082 88.4353 141.784C85.922 138.558 83.4087 135.333 80.6509 132.395C83.291 136.521 85.9714 140.484 88.8561 144.322C89.4471 148.293 90.0784 152.101 90.6694 156.072C90.9665 158.406 91.2635 160.74 91.7649 162.95C89.9078 159.885 88.0507 156.821 85.7851 154.004C93.9343 171.831 91.1708 158.282 94.6828 183.667C94.2712 183.218 93.8193 182.934 93.3674 182.649C92.4513 179.293 92.0274 176.059 90.5789 172.747C90.1209 171.069 89.539 169.187 88.7931 167.265C88.5022 166.324 88.0473 165.342 87.552 164.525C87.3044 164.117 87.0971 163.544 86.8495 163.135C88.2857 163.662 89.6414 164.516 90.7123 165.822C90.2574 164.841 85.6455 159.535 82.984 150.534C85.7295 150.686 86.8004 151.992 87.5402 152.522C87.4164 152.317 87.4164 152.317 87.2926 152.113L87.4566 152.153C87.0852 151.54 81.9441 146.974 78.1403 139.084C80.0253 139.199 81.9939 139.682 83.8418 140.657C79.8057 135.84 76.9179 131.306 74.8846 125.415C76.5251 125.817 77.8808 126.672 79.4408 127.402C77.3795 124.462 75.7267 121.273 74.0739 118.085C73.2475 116.491 72.4614 114.733 71.6753 112.975C71.3844 112.034 70.8891 111.216 70.5982 110.275C70.2671 109.498 70.1402 108.598 69.809 107.821C71.0812 108.307 72.3533 108.793 73.7493 109.483C71.7313 107.075 71.394 104.905 70.2334 101.837C69.6948 100.488 69.1563 99.1383 68.658 97.6246C68.4507 97.052 67.3675 92.9599 67.0394 92.8794C68.5158 93.2416 70.1161 93.8082 71.7566 94.2106C71.6328 94.0063 71.3047 93.9258 71.1809 93.7215L71.2211 93.5575C70.7259 92.7403 69.8624 92.0067 69.3671 91.1895C69.2433 90.9852 69.1195 90.7809 68.9555 90.7406C67.2997 86.8559 66.3433 83.6645 65.5449 79.1205C66.8574 79.4425 69.5657 80.4548 70.2281 82.0087C67.4055 73.6635 66.8333 64.6529 64.215 56.1839C65.0939 60.3998 68.5512 64.0308 70.9004 67.2161Z" fill="#F9F9F9"></path></svg>