<svg xmlns="http://www.w3.org/2000/svg" width="80" height="80" viewBox="0 0 80 80" fill="none"><g clip-path="url(#clip0)"><g clip-path="url(#clip1)"><path d="M54.1261 23.6797H10.6953V72.895H54.1261V23.6797Z" fill="#EEEEEE"></path><path d="M39.7666 32.9453H10.6953V64.014H39.7666V32.9453Z" fill="#F3BBA4"></path><path d="M57.4858 13.9609H7.32227V23.6786H57.4858V13.9609Z" fill="#B9BABA"></path><path d="M53.0559 8.5625H11.752V13.9496H53.0559V8.5625Z" fill="#F6F7F7"></path><path fill-rule="evenodd" clip-rule="evenodd" d="M54.1117 31.4219C60.4922 40.768 61.8198 49.2666 58.1893 57.0918L58.7176 57.1731C63.4996 51.4725 70.0562 48.2914 78.5636 47.5251C75.8136 52.6103 71.736 56.3372 66.4257 58.694C68.4577 59.379 70.5033 60.2846 72.6301 61.3528C67.7533 63.4078 61.6437 64.0115 54.1117 63.1756C46.6611 64.0115 40.4702 63.4078 35.6747 61.3528C37.7067 60.2846 39.8335 59.379 41.8791 58.694C36.5552 56.3372 32.4912 52.622 29.7412 47.5251C38.2485 48.2798 44.8052 51.4725 49.5871 57.1731L50.0342 57.0918C46.4985 49.2782 47.8261 40.768 54.1117 31.4219Z" fill="#C7D9B0"></path><path d="M57.4855 24.967H24.9599C24.1335 24.967 23.4562 24.3865 23.4562 23.6783C23.4562 22.97 24.1335 22.3895 24.9599 22.3895H55.9818V15.2493H47.7454C46.9191 15.2493 46.2418 14.6688 46.2418 13.9606C46.2418 13.2408 46.9191 12.6719 47.7454 12.6719H57.4991C58.3254 12.6719 59.0028 13.2524 59.0028 13.9606V23.6783C58.9892 24.3865 58.3119 24.967 57.4855 24.967ZM17.0757 24.967H7.32205C6.4957 24.967 5.81836 24.3865 5.81836 23.6783V13.9606C5.81836 13.2408 6.4957 12.6719 7.32205 12.6719H39.8477C40.6741 12.6719 41.3514 13.2524 41.3514 13.9606C41.3514 14.6804 40.6741 15.2493 39.8477 15.2493H8.82573V22.3895H17.0621C17.8885 22.3895 18.5658 22.97 18.5658 23.6783C18.5658 24.3865 17.902 24.967 17.0757 24.967Z" fill="#3A3A3A"></path><path d="M53.0557 15.2496C52.2293 15.2496 51.552 14.6691 51.552 13.9609V9.85088H13.2554V13.9493C13.2554 14.6691 12.5781 15.238 11.7517 15.238C10.9254 15.238 10.248 14.6575 10.248 13.9493V8.56216C10.248 7.85394 10.9254 7.27344 11.7517 7.27344H53.0557C53.882 7.27344 54.5593 7.85394 54.5593 8.56216V13.9609C54.5593 14.6691 53.882 15.2496 53.0557 15.2496Z" fill="#3A3A3A"></path><path d="M48.2737 74.1794H10.6951C9.86874 74.1794 9.19141 73.5989 9.19141 72.8907V23.6754C9.19141 22.9556 9.86874 22.3867 10.6951 22.3867C11.5214 22.3867 12.1988 22.9672 12.1988 23.6754V71.602H48.2737C49.1 71.602 49.7774 72.1825 49.7774 72.8907C49.7774 73.5989 49.1 74.1794 48.2737 74.1794ZM54.1123 27.7042C53.286 27.7042 52.6086 27.1236 52.6086 26.4154V23.6754C52.6086 22.9556 53.286 22.3867 54.1123 22.3867C54.9387 22.3867 55.616 22.9672 55.616 23.6754V26.4154C55.6296 27.1236 54.9522 27.7042 54.1123 27.7042Z" fill="#3A3A3A"></path><path d="M31.0694 65.2986H10.6951C9.86874 65.2986 9.19141 64.7181 9.19141 64.0098C9.19141 63.29 9.86874 62.7211 10.6951 62.7211H31.0829C31.9093 62.7211 32.5866 63.3016 32.5866 64.0098C32.5866 64.7181 31.9093 65.2986 31.0694 65.2986ZM39.7663 46.2348C38.94 46.2348 38.2627 45.6542 38.2627 44.946V34.2415H10.6951C9.86874 34.2415 9.19141 33.661 9.19141 32.9528C9.19141 32.233 9.86874 31.6641 10.6951 31.6641H39.7663C40.5927 31.6641 41.27 32.2446 41.27 32.9528V44.9576C41.27 45.6542 40.5927 46.2348 39.7663 46.2348Z" fill="#3A3A3A"></path><path d="M54.1121 74.1819C53.2857 74.1819 52.6084 73.6014 52.6084 72.8931V63.1754C52.6084 62.4556 53.2857 61.8867 54.1121 61.8867C54.9385 61.8867 55.6158 62.4672 55.6158 63.1754V72.8931C55.6293 73.613 54.952 74.1819 54.1121 74.1819Z" fill="#3A3A3A"></path><path d="M61.9155 61.5059C61.2788 61.5059 60.6828 61.1576 60.4796 60.6003C60.2358 59.9153 60.6692 59.1955 61.4685 58.9749C67.7948 57.2682 72.5091 54.029 75.8145 49.1063C71.5202 49.8377 67.8084 51.3006 64.7468 53.4601C64.0966 53.9129 63.1483 53.8316 62.62 53.2859C62.0916 52.7402 62.1865 51.9275 62.8232 51.4747C67.0091 48.5258 72.2246 46.7378 78.3341 46.1689C78.876 46.1109 79.4043 46.3198 79.7159 46.703C80.0275 47.0745 80.0817 47.5737 79.8649 47.9917C76.2344 54.772 70.3551 59.3 62.3761 61.4478C62.2136 61.4827 62.0646 61.5059 61.9155 61.5059ZM56.7678 60.9718C56.524 60.9718 56.2801 60.9254 56.0634 60.8209C55.3318 60.4842 55.0609 59.7063 55.4402 59.0677C60.5338 50.9058 59.6803 42.0822 52.8122 32.0742C52.3922 31.4589 52.6361 30.6694 53.354 30.3095C54.072 29.938 54.9932 30.147 55.4131 30.7623C62.7554 41.4552 63.6631 51.3935 58.0954 60.2868C57.838 60.728 57.3097 60.9718 56.7678 60.9718Z" fill="#3A3A3A"></path><path d="M60.343 64.8264C58.3245 64.8264 56.1842 64.6987 53.9219 64.4548C53.0955 64.362 52.513 63.7118 52.6214 63.0152C52.7297 62.307 53.4884 61.7961 54.3147 61.9006C61.5622 62.7017 67.3467 62.1444 71.9796 60.1939C72.7247 59.8804 73.6323 60.1475 73.9981 60.786C74.3639 61.4246 74.0523 62.2025 73.3072 62.5159C69.609 64.0601 65.3417 64.8264 60.343 64.8264Z" fill="#3A3A3A"></path><path d="M61.1156 68.7947C61.0614 68.7947 61.0208 68.7947 60.9666 68.7947C59.9235 68.7019 59.0565 68.609 58.1895 68.3419C57.4174 68.0865 57.011 67.3435 57.309 66.6817C57.607 66.0199 58.4605 65.6832 59.2462 65.927C59.7609 66.0895 60.4112 66.1592 61.2646 66.2289C62.091 66.2985 62.7006 66.9371 62.6193 67.6453C62.538 68.2955 61.8878 68.7947 61.1156 68.7947Z" fill="#3A3A3A"></path><path d="M46.4047 61.5055C46.2557 61.5055 46.1067 61.4823 45.9576 61.4475C37.9786 59.2996 32.0994 54.7716 28.4689 47.9913C28.2386 47.5618 28.2928 47.0741 28.6179 46.7026C28.9294 46.3311 29.4713 46.1221 29.9996 46.1685C36.0008 46.7258 41.2028 48.5022 45.4971 51.4628C46.1473 51.9039 46.2421 52.7166 45.7274 53.2739C45.2126 53.8312 44.2643 53.9241 43.6141 53.4713C40.417 51.2654 36.773 49.8257 32.5329 49.1059C35.8247 54.0402 40.539 57.2794 46.8788 58.9861C47.6781 59.1951 48.1116 59.9265 47.8677 60.6115C47.6374 61.1572 47.0549 61.5055 46.4047 61.5055ZM51.5524 60.9714C51.0106 60.9714 50.4958 60.7276 50.2249 60.2864C44.6843 51.4163 45.5512 41.4897 52.8258 30.7735C53.2458 30.1582 54.167 29.9492 54.8849 30.3091C55.6029 30.669 55.8467 31.4585 55.4268 32.0739C48.6264 42.105 47.7865 50.9287 52.88 59.0674C53.2729 59.6943 53.0019 60.4722 52.2569 60.8205C52.0266 60.925 51.7827 60.9714 51.5524 60.9714Z" fill="#3A3A3A"></path><path d="M47.9763 64.826C42.964 64.826 38.6155 64.0481 35.0121 62.5039C34.267 62.1905 33.969 61.4126 34.3347 60.774C34.7005 60.1354 35.6081 59.8684 36.3532 60.1935C40.8507 62.1208 46.7571 62.6897 53.9233 61.8886C54.7496 61.7957 55.5083 62.2949 55.6166 63.0032C55.725 63.7114 55.1425 64.3616 54.3161 64.4544C52.0945 64.6983 49.9812 64.826 47.9763 64.826Z" fill="#3A3A3A"></path><path d="M47.2035 68.7946C46.4449 68.7946 45.7811 68.2953 45.6998 67.6336C45.6185 66.9254 46.2146 66.2868 47.0545 66.2171C47.9079 66.1475 48.5446 66.0778 49.0729 65.9153C49.8586 65.6715 50.7121 66.0082 51.0101 66.6699C51.3081 67.3317 50.9017 68.0748 50.1296 68.3302C49.2761 68.6088 48.4091 68.7017 47.3525 68.783C47.2983 68.7946 47.2577 68.7946 47.2035 68.7946Z" fill="#3A3A3A"></path><path d="M32.5866 42.8939H17.7801C16.9537 42.8939 16.2764 42.3133 16.2764 41.6051C16.2764 40.8969 16.9537 40.3164 17.7801 40.3164H32.5866C33.413 40.3164 34.0903 40.8969 34.0903 41.6051C34.0903 42.3133 33.413 42.8939 32.5866 42.8939Z" fill="#3A3A3A"></path><path d="M24.3367 49.8001H17.7801C16.9537 49.8001 16.2764 49.2196 16.2764 48.5114C16.2764 47.8032 16.9537 47.2227 17.7801 47.2227H24.3367C25.163 47.2227 25.8403 47.8032 25.8403 48.5114C25.8403 49.2196 25.1766 49.8001 24.3367 49.8001Z" fill="#3A3A3A"></path><path d="M27.4389 56.7219H17.7801C16.9537 56.7219 16.2764 56.1414 16.2764 55.4332C16.2764 54.7134 16.9537 54.1445 17.7801 54.1445H27.4389C28.2652 54.1445 28.9425 54.725 28.9425 55.4332C28.9425 56.1414 28.2788 56.7219 27.4389 56.7219Z" fill="#3A3A3A"></path></g></g><defs><clipPath id="clip0"><rect width="80" height="80" fill="white"></rect></clipPath><clipPath id="clip1"><rect width="74.1818" height="66.9091" fill="white" transform="translate(5.81836 7.27344)"></rect></clipPath></defs></svg>