<svg xmlns="http://www.w3.org/2000/svg" width="80" height="80" viewBox="0 0 80 80" fill="none"><g clip-path="url(#clip0)"><path opacity="0.5" fill-rule="evenodd" clip-rule="evenodd" d="M9.2569 36.0586L16.8905 40.4725V49.2313L9.2569 53.659L1.54004 49.2313V40.4725L9.2569 36.0586Z" fill="#E67849"></path><path fill-rule="evenodd" clip-rule="evenodd" d="M16.8914 49.2305L24.6083 53.6581V62.4997L16.8914 66.9136L9.25781 62.4997V53.6581L16.8914 49.2305Z" fill="#E67748" fill-opacity="0.5"></path><path fill-rule="evenodd" clip-rule="evenodd" d="M32.3253 49.2305L39.9589 53.6581V62.4997L32.3253 66.9136L24.6084 62.4997V53.6581L32.3253 49.2305Z" fill="#E67748" fill-opacity="0.5"></path><path fill-rule="evenodd" clip-rule="evenodd" d="M25.7877 41.2027C24.3304 41.2027 23.0674 39.9337 23.0674 38.4992V15.9332C23.0674 14.4849 24.3443 13.3125 25.7877 13.3125H75.7253C77.1826 13.3125 78.4456 14.4849 78.4456 15.9332V38.4992C78.4456 39.9475 77.1687 41.2027 75.7253 41.2027C59.1118 41.2027 42.4012 41.2027 25.7877 41.2027Z" fill="#8EB360" fill-opacity="0.5"></path><path d="M9.25746 55.188C8.99375 55.188 8.73005 55.119 8.48022 54.9811L0.777238 50.5534C0.305343 50.2775 0 49.7672 0 49.2292V40.4705C0 39.9187 0.291464 39.4084 0.777238 39.1463L8.4941 34.7186C8.97987 34.4428 9.5628 34.4428 10.0486 34.7186L17.6683 39.1463C18.1402 39.4222 18.4316 39.9187 18.4316 40.4705V49.2292C18.4316 49.781 18.1402 50.2775 17.6683 50.5534L10.0486 54.9811C9.79875 55.119 9.53504 55.188 9.25746 55.188ZM3.08119 48.3465L9.25746 51.8776L15.3504 48.3465V41.3532L9.25746 37.8221L3.08119 41.3532V48.3465Z" fill="#3A3A3A"></path><path d="M16.891 68.4452C16.3636 68.4452 15.8362 68.1694 15.5586 67.6728C15.1283 66.9417 15.392 66.0038 16.1276 65.5762L23.0672 61.6037V54.5415L20.0277 52.8173C19.2921 52.3897 19.0284 51.4655 19.4586 50.7207C19.875 49.9896 20.8188 49.7276 21.5683 50.1552L25.3851 52.3207C25.8709 52.5966 26.1623 53.107 26.1623 53.6587V62.5003C26.1623 63.052 25.8709 63.5624 25.3851 63.8244L17.6682 68.2521C17.4184 68.3901 17.1547 68.4452 16.891 68.4452ZM9.25739 64.0313C8.41076 64.0313 7.7168 63.3417 7.7168 62.5003V53.6587C7.7168 52.8173 8.41076 52.1276 9.25739 52.1276C10.104 52.1276 10.798 52.8173 10.798 53.6587V62.5003C10.8119 63.3417 10.1179 64.0313 9.25739 64.0313Z" fill="#3A3A3A"></path><path d="M32.3249 68.4447C32.0612 68.4447 31.7975 68.3757 31.5615 68.2378L27.7447 66.0722C27.0091 65.6447 26.7454 64.7205 27.1757 63.9757C27.592 63.2446 28.5358 62.9825 29.2853 63.4101L32.3249 65.1343L38.4179 61.6032V54.5272L32.3249 50.9961L25.3852 54.9686C24.6496 55.3962 23.7058 55.1479 23.2756 54.403C22.8453 53.672 23.109 52.734 23.8446 52.3064L31.5615 47.8788C32.0473 47.6029 32.6302 47.6029 33.116 47.8788L40.7357 52.3064C41.2076 52.5823 41.4991 53.0789 41.4991 53.6306V62.4722C41.4991 63.0239 41.2076 63.5205 40.7357 63.7963L33.116 68.224C32.8662 68.3757 32.5886 68.4447 32.3249 68.4447Z" fill="#3A3A3A"></path><path d="M47.6753 68.4441C47.4116 68.4441 47.1479 68.3751 46.8981 68.2372L39.1812 63.8095C38.4456 63.3819 38.1958 62.4439 38.6122 61.7129C39.0425 60.9818 39.9862 60.7198 40.7218 61.1474L47.6753 65.1336L54.615 61.1474C55.3506 60.7198 56.2944 60.9818 56.7246 61.7129C57.1549 62.4439 56.8912 63.3819 56.1556 63.8095L48.4387 68.251C48.2028 68.3889 47.939 68.4441 47.6753 68.4441Z" fill="#3A3A3A"></path><path d="M63.0117 68.4438C62.748 68.4438 62.4704 68.3748 62.2345 68.2369L54.6009 63.8092C53.8653 63.3816 53.6155 62.4437 54.0457 61.7126C54.476 60.9816 55.4198 60.7195 56.1554 61.1609L63.0117 65.1334L69.9514 61.1609C70.687 60.7333 71.6308 60.9954 72.061 61.7264C72.4913 62.4575 72.2276 63.3954 71.492 63.823L63.7751 68.2507C63.553 68.3886 63.2754 68.4438 63.0117 68.4438Z" fill="#3A3A3A"></path><path d="M78.4457 68.4441C78.182 68.4441 77.9182 68.3751 77.6823 68.2372L69.9654 63.8095C69.2298 63.3819 68.98 62.4439 69.3964 61.7129C69.8266 60.9818 70.7704 60.7198 71.506 61.1474L79.2229 65.575C79.9585 66.0026 80.2083 66.9406 79.7919 67.6716C79.5005 68.182 78.9869 68.4441 78.4457 68.4441Z" fill="#3A3A3A"></path><path d="M9.25739 37.5888C8.41076 37.5888 7.7168 36.8991 7.7168 36.0577V27.9334C7.7168 27.092 8.41076 26.4023 9.25739 26.4023C10.104 26.4023 10.798 27.092 10.798 27.9334V36.0577C10.8119 36.8991 10.1179 37.5888 9.25739 37.5888Z" fill="#3A3A3A"></path><path d="M32.3248 50.7618C31.4781 50.7618 30.7842 50.0721 30.7842 49.2307V41.2029C30.7842 40.3615 31.4781 39.6719 32.3248 39.6719C33.1714 39.6719 33.8654 40.3615 33.8654 41.2029V49.2307C33.8654 50.0721 33.1714 50.7618 32.3248 50.7618Z" fill="#3A3A3A"></path><path d="M9.25815 72.8712C8.41152 72.8712 7.71755 72.1815 7.71755 71.3401V63.3813L0.777927 59.4088C0.0423271 58.9812 -0.207499 58.0433 0.208878 57.3122C0.639135 56.5812 1.58292 56.3329 2.31852 56.7467L10.0354 61.1606C10.5073 61.4364 10.8126 61.9468 10.8126 62.4847V71.3263C10.8126 72.1815 10.1187 72.8712 9.25815 72.8712Z" fill="#3A3A3A"></path><path d="M36.1414 34.8844C32.6854 34.8844 29.8818 32.0567 29.8818 28.567V25.9463C29.8818 22.4565 32.6993 19.6289 36.1414 19.6289C37.793 19.6289 39.3475 20.2358 40.6244 21.3807C41.2628 21.9462 41.3044 22.9117 40.7354 23.5462C40.1663 24.1669 39.1948 24.2221 38.5563 23.6566C38.0706 23.2152 37.2517 22.691 36.1414 22.691C34.3926 22.691 32.963 24.1531 32.963 25.9463V28.567C32.963 30.3602 34.3926 31.8223 36.1414 31.8223C37.0435 31.8223 37.8346 31.4912 38.5008 30.8291C39.0976 30.236 40.0831 30.236 40.6799 30.8291C41.2767 31.4222 41.2767 32.4016 40.6799 32.9947C39.4307 34.2223 37.8624 34.8844 36.1414 34.8844Z" fill="#3A3A3A"></path><path d="M52.575 34.8844H48.3002C45.9407 34.8844 44.0254 32.9809 44.0254 30.636V26.4842C44.0254 25.6428 44.7193 24.9531 45.566 24.9531C46.4126 24.9531 47.1066 25.6428 47.1066 26.4842V30.636C47.1066 31.367 47.7173 31.8084 48.2863 31.8084H52.5472C53.1718 31.8084 53.6437 31.2981 53.6437 30.636V29.1049C53.6437 28.5118 53.1579 28.0291 52.5472 28.0291H50.0073C49.1607 28.0291 48.4667 27.3394 48.4667 26.498C48.4667 25.6566 49.1607 24.9669 50.0073 24.9669H52.5472C54.8512 24.9669 56.7249 26.829 56.7249 29.1187V30.6498C56.7527 33.0223 54.9206 34.8844 52.575 34.8844Z" fill="#3A3A3A"></path><path d="M52.5748 28.0291C51.7282 28.0291 51.0342 27.3394 51.0342 26.498C51.0342 25.6566 51.7282 24.967 52.5748 24.967C53.1577 24.967 53.6713 24.4152 53.6713 23.7945C53.6713 23.2014 53.1855 22.7048 52.5748 22.7048H48.3C47.6754 22.7048 47.1203 23.2152 47.1203 23.7945V26.498C47.1203 27.3394 46.4263 28.0291 45.5797 28.0291C44.733 28.0291 44.0391 27.3394 44.0391 26.498V23.7807C44.0391 21.5324 45.996 19.6289 48.3139 19.6289H52.5748C54.8788 19.6289 56.7525 21.491 56.7525 23.7807C56.7525 26.0842 54.8371 28.0291 52.5748 28.0291Z" fill="#3A3A3A"></path><path d="M65.3713 34.8844H63.1923C60.8467 34.8844 59.0146 33.0223 59.0146 30.636V23.7807C59.0146 21.491 60.8883 19.6289 63.1923 19.6289H65.3713C68.8273 19.6289 71.6309 22.4565 71.6309 25.9463V28.567C71.6448 32.0429 68.8273 34.8844 65.3713 34.8844ZM63.1923 22.7048C62.5955 22.7048 62.0958 23.1876 62.0958 23.7945V30.6498C62.0958 31.3119 62.5677 31.8223 63.1923 31.8223H65.3713C67.1201 31.8223 68.5497 30.3602 68.5497 28.567V25.9463C68.5497 24.1531 67.1201 22.691 65.3713 22.691H63.1923V22.7048Z" fill="#3A3A3A"></path><path d="M75.726 42.7336H37.4054C36.5588 42.7336 35.8648 42.0439 35.8648 41.2025C35.8648 40.3611 36.5588 39.6715 37.4054 39.6715H75.726C76.3228 39.6715 76.9058 39.0922 76.9058 38.499V15.9331C76.9058 15.3675 76.3367 14.8572 75.726 14.8572H25.7885C25.1639 14.8572 24.6087 15.3675 24.6087 15.9331V38.499C24.6087 39.0922 25.1917 39.6715 25.7885 39.6715H27.1486C27.9953 39.6715 28.6892 40.3611 28.6892 41.2025C28.6892 42.0439 27.9953 42.7336 27.1486 42.7336H25.7885C23.4706 42.7336 21.5137 40.7887 21.5137 38.499V15.9331C21.5137 13.6847 23.4706 11.7812 25.7885 11.7812H75.726C78.0439 11.7812 80.0008 13.6847 80.0008 15.9331V38.499C80.0008 40.7887 78.0439 42.7336 75.726 42.7336Z" fill="#3A3A3A"></path></g><defs><clipPath id="clip0"><rect width="80" height="61.0909" fill="white" transform="translate(0 11.7812)"></rect></clipPath></defs></svg>