<svg xmlns="http://www.w3.org/2000/svg" width="80" height="80" viewBox="0 0 80 80" fill="none"><path fill-rule="evenodd" clip-rule="evenodd" d="M16.3762 27.332L10.1396 33.6052L18.6244 35.7509L16.3762 27.332Z" fill="#F6F7F7"></path><path fill-rule="evenodd" clip-rule="evenodd" d="M16.1219 38.2257L21.1137 33.2653C22.1933 32.1924 23.9335 32.1924 25.0131 33.1769C26.0928 34.2498 26.0928 35.979 25.0131 37.0519L20.1103 42.0123C19.0306 43.0852 17.2905 43.0852 16.2109 42.1007C15.1312 41.0404 15.1312 39.3112 16.1219 38.2257Z" fill="#E4E7E7"></path><path fill-rule="evenodd" clip-rule="evenodd" d="M20.8604 41.2914L28.0876 48.4733C29.0021 47.0723 30.0818 45.8353 31.2503 44.6741L24.2644 37.8203L20.8604 41.2914Z" fill="#F6F7F7"></path><path fill-rule="evenodd" clip-rule="evenodd" d="M44.5487 39.4734C33.8285 39.4734 25.1914 48.0563 25.1914 58.7093C25.1914 65.0709 28.2652 70.6877 33.0029 74.2345H56.0184C60.8323 70.6877 63.9061 65.0709 63.9061 58.7093C63.9061 52.676 61.1625 47.3116 56.7551 43.7649L66.7259 13.1312L56.7551 9.98828L47.1145 39.6375C46.2889 39.5491 45.4633 39.4734 44.5487 39.4734Z" fill="#F6F7F7"></path><path fill-rule="evenodd" clip-rule="evenodd" d="M69.4694 8.26027C70.8793 8.75253 71.6287 10.3303 71.2095 11.7313C70.7141 13.1324 69.2153 13.9654 67.7165 13.4605L55.6626 9.66132C54.2528 9.16906 53.5034 7.5913 53.9225 6.19026C54.4179 4.78921 55.9167 3.95615 57.4155 4.46104L69.4694 8.26027Z" fill="#E4E7E7"></path><path fill-rule="evenodd" clip-rule="evenodd" d="M35.9883 58.5497C33.9052 58.9662 31.9999 58.8021 30.2598 58.0574C30.2598 58.3098 30.1709 58.4739 30.1709 58.7137C30.1709 62.7654 31.911 66.4763 34.8197 69.2027H54.266C57.0095 66.6404 58.6734 63.0936 58.8386 59.2943C58.8386 59.1303 58.8386 58.8778 58.8386 58.7137C58.8386 58.1331 58.8386 57.5525 58.7497 56.9845C51.5224 51.2794 43.1266 57.3127 35.9883 58.5497Z" fill="#C7D9B0"></path><path fill-rule="evenodd" clip-rule="evenodd" d="M37.8177 52.2745C39.3165 52.2745 40.4723 51.1133 40.4723 49.6365C40.4723 48.2354 39.3038 47.0742 37.8177 47.0742C36.4078 47.0742 35.2393 48.2354 35.2393 49.6365C35.2393 51.1133 36.4078 52.2745 37.8177 52.2745Z" fill="#C7D9B0"></path><path d="M68.6055 15.0012C68.1609 15.0012 67.7164 14.9254 67.2845 14.7866L55.256 11C53.1348 10.2553 51.9536 7.9202 52.576 5.7997C53.3762 3.55298 55.6879 2.40437 57.8726 3.12383L65.9127 5.67348C66.6621 5.9133 67.0686 6.69586 66.8272 7.44056C66.5859 8.17264 65.7857 8.57654 65.049 8.34934L56.9834 5.78707C56.1451 5.50939 55.4719 6.02689 55.256 6.658C55.0655 7.30172 55.4592 8.09691 56.1451 8.33673L68.1482 12.1233C68.9865 12.401 69.6597 11.8835 69.8756 11.265C70.0662 10.6213 69.6724 9.82613 68.9865 9.58631C68.2498 9.32125 67.8688 8.52606 68.1228 7.79398C68.3768 7.0619 69.1898 6.68324 69.9265 6.93568C72.0095 7.66776 73.1908 9.99021 72.5557 12.1233C71.9333 13.9157 70.3329 15.0012 68.6055 15.0012Z" fill="#3A3A3A"></path><path d="M47.115 41.0397C46.9753 41.0397 46.8228 41.0144 46.6831 40.9766C45.9464 40.7368 45.5273 39.9542 45.7686 39.2095L54.1644 13.3596C54.4057 12.6275 55.1932 12.211 55.9426 12.4508C56.6793 12.6906 57.0985 13.4732 56.8572 14.2179L48.4613 40.0678C48.2708 40.661 47.712 41.0397 47.115 41.0397Z" fill="#3A3A3A"></path><path d="M56.7547 45.1672C56.615 45.1672 56.4626 45.142 56.3229 45.1041C55.5862 44.8643 55.1797 44.0691 55.4084 43.337L65.3792 12.7033C65.6205 11.9712 66.408 11.5547 67.1574 11.7945C67.8941 12.0343 68.3006 12.8295 68.0719 13.5616L58.1011 44.1953C57.9106 44.7885 57.3517 45.1672 56.7547 45.1672Z" fill="#3A3A3A"></path><path d="M56.0181 75.6374H33.0027C32.6978 75.6374 32.393 75.5364 32.1517 75.3597C26.8297 71.3711 23.7812 65.2999 23.7812 58.7112C23.7812 47.3262 33.1043 38.0742 44.5485 38.0742C47.1523 38.0742 49.6419 38.516 51.9536 39.4122C52.6776 39.6898 53.0459 40.4976 52.7665 41.2297C52.487 41.9492 51.6741 42.3152 50.9374 42.0375C48.956 41.2802 46.7967 40.8889 44.5485 40.8889C34.6539 40.8889 26.601 48.8913 26.601 58.7239C26.601 64.2649 29.1033 69.3895 33.4853 72.8479H55.5481C59.981 69.4147 62.5087 64.3028 62.5087 58.7239C62.5087 53.309 60.0953 48.2602 55.8784 44.8649C55.2687 44.3726 55.1798 43.4891 55.6751 42.8958C56.1705 42.29 57.0596 42.2016 57.6566 42.6939C62.5341 46.6193 65.3284 52.476 65.3284 58.7239C65.3284 65.3378 62.2419 71.409 56.8691 75.3723C56.6151 75.5364 56.3102 75.6374 56.0181 75.6374Z" fill="#3A3A3A"></path><path d="M54.2667 70.6004H34.8204C34.4648 70.6004 34.1091 70.4615 33.8551 70.2217C30.5654 67.1419 28.7617 63.0524 28.7617 58.7104C28.7617 58.4832 28.7871 58.2939 28.8252 58.1045C28.8252 57.3346 29.4603 56.6782 30.2478 56.6782C31.0353 56.6782 31.6704 57.2841 31.6704 58.054C31.6704 58.2812 31.645 58.4706 31.6069 58.6599C31.5942 62.0931 32.9406 65.2991 35.4047 67.7983H53.6951C55.9687 65.4884 57.2897 62.4718 57.4294 59.2279V58.7104C57.4294 58.3822 57.4294 58.0541 57.4167 57.7259C52.9203 54.5577 47.9285 56.2743 42.6573 58.0793C40.5362 58.8114 38.3388 59.5561 36.243 59.9221C35.4682 60.0483 34.7442 59.5434 34.6045 58.7861C34.4648 58.0162 34.9855 57.2967 35.7476 57.1579C37.6275 56.8297 39.6216 56.1481 41.7301 55.4287C47.3951 53.4849 53.8094 51.2886 59.6395 55.8704C59.9189 56.0976 60.1094 56.4132 60.1602 56.7666C60.2492 57.4103 60.2619 58.054 60.2619 58.6978V59.2784C60.084 63.4941 58.2931 67.3565 55.2447 70.2091C54.978 70.4615 54.6223 70.6004 54.2667 70.6004Z" fill="#3A3A3A"></path><path d="M18.1037 44.2472C17.0748 44.2472 16.046 43.8811 15.2458 43.1491C13.62 41.5334 13.5692 38.9207 15.0807 37.2798C15.0934 37.2672 15.1061 37.2546 15.1188 37.2419L20.1105 32.2815C21.6983 30.7037 24.3275 30.6532 25.9787 32.1553C26.8043 32.9757 27.2489 34.0233 27.2489 35.1341C27.2489 36.2448 26.817 37.2798 26.0295 38.0624L21.1394 43.0102C20.3011 43.8306 19.2087 44.2472 18.1037 44.2472ZM17.1511 39.1984C16.6684 39.7411 16.6938 40.5994 17.2146 41.1169C17.7226 41.5839 18.599 41.5587 19.1198 41.0286L24.01 36.0807C24.5434 35.5506 24.5434 34.6923 24.0227 34.1748C23.5146 33.7078 22.6382 33.733 22.1174 34.2631L17.1511 39.1984Z" fill="#3A3A3A"></path><path d="M28.087 49.8771C27.7187 49.8771 27.363 49.7382 27.0836 49.4732L22.9301 45.3457C22.384 44.803 22.384 43.9068 22.9301 43.3641C23.4763 42.8213 24.3781 42.8213 24.9243 43.3641L29.0778 47.4915C29.6239 48.0342 29.6239 48.9304 29.0778 49.4732C28.811 49.7382 28.4554 49.8771 28.087 49.8771Z" fill="#3A3A3A"></path><path d="M31.25 46.0746C30.8943 46.0746 30.5387 45.9358 30.2592 45.6707L23.2733 38.817C22.7144 38.2742 22.7144 37.3781 23.2606 36.8353C23.8068 36.2926 24.7086 36.2799 25.2548 36.8227L32.2407 43.6764C32.7995 44.2192 32.7996 45.1154 32.2534 45.6581C31.9739 45.9358 31.6183 46.0746 31.25 46.0746Z" fill="#3A3A3A"></path><path d="M18.6248 37.1538C18.5105 37.1538 18.3961 37.1412 18.2691 37.1159L9.7971 34.9702C9.30174 34.844 8.92069 34.4653 8.78097 33.9857C8.64125 33.506 8.78097 32.9759 9.13662 32.6225L15.3731 26.3493C15.7288 25.9959 16.2496 25.8571 16.7449 25.9833C17.2403 26.1095 17.6213 26.4882 17.7483 26.9804L18.6629 30.3631C18.8661 31.1078 18.4215 31.8778 17.6594 32.0797C16.91 32.2943 16.1352 31.8399 15.932 31.0826L15.6526 30.0602L12.8836 32.8497L18.9677 34.3896C19.7298 34.5789 20.1744 35.3488 19.9838 36.0935C19.8187 36.7373 19.2471 37.1538 18.6248 37.1538Z" fill="#3A3A3A"></path><path d="M37.8174 53.6742C35.62 53.6742 33.8291 51.8567 33.8291 49.6352C33.8291 47.4516 35.62 45.6719 37.8174 45.6719C38.5922 45.6719 39.2273 46.303 39.2273 47.0729C39.2273 47.8429 38.5922 48.474 37.8174 48.474C37.1823 48.474 36.6489 49.0041 36.6489 49.6352C36.6489 50.3294 37.1569 50.8722 37.8174 50.8722C38.5287 50.8722 39.0622 50.342 39.0622 49.6352C39.0622 48.8526 39.6973 48.2341 40.4721 48.2341C41.2469 48.2341 41.882 48.8652 41.882 49.6352C41.882 51.8945 40.1037 53.6742 37.8174 53.6742Z" fill="#3A3A3A"></path><path d="M38.6424 65.2357H38.4773C37.7025 65.2357 37.0674 64.6046 37.0674 63.8346C37.0674 63.0521 37.7025 62.4336 38.4773 62.4336C39.2521 62.4336 39.9761 63.0647 39.9761 63.8346C39.9761 64.6046 39.4299 65.2357 38.6424 65.2357Z" fill="#3A3A3A"></path><path d="M47.368 61.1849H47.2029C46.4281 61.1849 45.793 60.5538 45.793 59.7839C45.793 59.0013 46.4281 58.3828 47.2029 58.3828C47.9777 58.3828 48.7017 59.0139 48.7017 59.7839C48.7017 60.5664 48.1428 61.1849 47.368 61.1849Z" fill="#3A3A3A"></path><path d="M52.4373 65.5638H52.1833C51.4085 65.5638 50.7734 64.9327 50.7734 64.1628C50.7734 63.3802 51.4085 62.7617 52.1833 62.7617C52.9581 62.7617 53.7202 63.3928 53.7202 64.1628C53.7329 64.9327 53.2248 65.5638 52.4373 65.5638Z" fill="#3A3A3A"></path></svg>