<svg xmlns="http://www.w3.org/2000/svg" width="80" height="80" viewBox="0 0 80 80" fill="none"><g clip-path="url(#clip0)"><path fill-rule="evenodd" clip-rule="evenodd" d="M56.2786 73.8975C59.7068 73.8975 62.4274 71.0654 62.4274 67.6644V38.2179C62.4274 34.5819 59.9508 31.4159 56.2054 29.4742C54.046 28.423 52.8504 26.3205 52.8504 23.9708V17.8242H42.5536V23.9708C42.5536 26.3205 41.2726 28.423 39.1986 29.4742C35.4532 31.4159 32.9766 34.5695 32.9766 38.2179V67.6644C32.9766 71.0654 35.685 73.8975 39.04 73.8975H56.2786Z" fill="#B9BABA"></path><path fill-rule="evenodd" clip-rule="evenodd" d="M56.2786 73.9C59.7068 73.9 62.4274 71.0678 62.4274 67.6668V38.2203C62.4274 36.3652 61.793 34.6585 60.6706 33.125H34.7334C33.611 34.6585 32.9766 36.3652 32.9766 38.2203V67.6668C32.9766 71.0678 35.685 73.9 39.04 73.9H56.2786Z" fill="#EEEEEE"></path><path d="M62.4274 40H32.9766V65.8848H62.4274V40Z" fill="#C7D9B0"></path><path fill-rule="evenodd" clip-rule="evenodd" d="M11.1021 57.7227C13.5787 59.5035 15.2501 61.6926 15.2501 64.1907C15.2501 66.5405 13.3347 68.3956 11.1021 68.3956C8.7841 68.3956 6.9541 66.5405 6.9541 64.1907C6.9541 61.6802 8.6255 59.4912 11.1021 57.7227Z" fill="#C7D9B0"></path><path fill-rule="evenodd" clip-rule="evenodd" d="M28.1819 25.3557L34.8919 11.0344C35.8557 9.09274 35.0505 6.74295 33.0619 5.7783C31.1465 4.80129 28.7553 5.69173 27.8769 7.6334L21.0938 21.8682L28.1819 25.3557Z" fill="#F3BBA4"></path><path fill-rule="evenodd" clip-rule="evenodd" d="M23.7171 23.1688L19.4105 21.0664L17.4951 25.1971L27.9505 30.2924L29.8659 26.1617L23.7171 23.1688Z" fill="#F3BBA4"></path><path fill-rule="evenodd" clip-rule="evenodd" d="M25.6315 29.1563L16.5303 48.4122L11.1013 52.3821L10.7109 45.5801L19.7999 26.3242L25.6315 29.1563Z" fill="#C7D9B0"></path><path fill-rule="evenodd" clip-rule="evenodd" d="M19.0801 42.9062L16.5303 48.4097L11.1013 52.3796L10.7109 45.5776L11.9797 42.9062H19.0801Z" fill="#89A26A"></path><path d="M11.1018 69.7693C8.01521 69.7693 5.59961 67.3205 5.59961 64.1916C5.59961 61.4461 7.23441 58.8242 10.321 56.5981C10.7968 56.2642 11.419 56.2642 11.8948 56.5981C14.9814 58.8242 16.6162 61.4461 16.6162 64.1916C16.604 67.2711 14.1396 69.7693 11.1018 69.7693ZM11.1018 59.4426C9.24741 60.9761 8.30801 62.5591 8.30801 64.1916C8.30801 65.7746 9.54021 67.0237 11.1018 67.0237C12.6146 67.0237 13.8956 65.7252 13.8956 64.1916C13.8956 62.5591 12.9562 60.9761 11.1018 59.4426Z" fill="#3A3A3A"></path><path d="M28.1812 26.7305C27.986 26.7305 27.7908 26.6934 27.5956 26.5945C26.9246 26.2729 26.6318 25.4443 26.949 24.7641L33.659 10.4428C33.964 9.82442 34.0128 9.14422 33.7932 8.51349C33.5736 7.85802 33.0978 7.32623 32.4512 7.01704C31.8534 6.70786 31.1702 6.67076 30.5236 6.90574C29.877 7.14072 29.3524 7.61067 29.084 8.2043L24.0454 18.902C23.7282 19.5946 22.9108 19.8667 22.2398 19.5575C21.5688 19.2359 21.276 18.4073 21.6054 17.7271L26.6318 7.04178C27.193 5.79268 28.291 4.77856 29.633 4.30861C30.975 3.82628 32.4024 3.91285 33.659 4.54358C34.94 5.16195 35.916 6.26264 36.3674 7.62304C36.8188 8.95871 36.7212 10.3809 36.099 11.6548L29.4134 25.9514C29.1816 26.4461 28.6936 26.7305 28.1812 26.7305Z" fill="#3A3A3A"></path><path d="M27.9503 31.6631C27.7551 31.6631 27.5477 31.6136 27.3647 31.527L16.9093 26.4317C16.2383 26.1101 15.9577 25.2939 16.2749 24.6013L18.1903 20.4706C18.3489 20.1367 18.6173 19.877 18.9589 19.7657C19.2883 19.642 19.6787 19.6668 19.9959 19.8276L24.3025 21.93C24.9735 22.2639 25.2663 23.0801 24.9369 23.7604C24.6075 24.4406 23.7901 24.7374 23.1191 24.4034L20.0447 22.907L19.2883 24.5395L27.3037 28.4476L28.0723 26.7903L26.5351 26.0112C25.8641 25.6773 25.5957 24.8487 25.9251 24.1685C26.2545 23.4883 27.0719 23.2162 27.7429 23.5501L30.4513 24.9229C31.1101 25.2568 31.3907 26.0607 31.0735 26.7409L29.1581 30.8715C28.9995 31.2055 28.7189 31.4652 28.3773 31.5765C28.2553 31.6383 28.0967 31.6631 27.9503 31.6631Z" fill="#3A3A3A"></path><path d="M11.1024 53.7524C10.9072 53.7524 10.712 53.7153 10.5168 53.6163C10.0654 53.3937 9.77259 52.9609 9.74819 52.4538L9.34559 45.6642C9.33339 45.4292 9.38219 45.1942 9.47979 44.984L18.581 25.7281C18.9104 25.0355 19.7156 24.7511 20.3866 25.085C21.0576 25.4066 21.3504 26.2352 21.021 26.9154L12.0784 45.8497L12.3102 49.7948L15.4578 47.5069L22.6436 32.1344C22.973 31.4418 23.7782 31.1573 24.4492 31.4789C25.1324 31.8004 25.413 32.629 25.0958 33.3092L17.7636 49.0033C17.666 49.2136 17.5196 49.3991 17.3244 49.5351L11.8954 53.4927C11.6636 53.6658 11.383 53.7524 11.1024 53.7524Z" fill="#3A3A3A"></path><path d="M56.2783 75.272H39.0397C34.9527 75.272 31.6221 71.8586 31.6221 67.6661V38.2196C31.6221 34.1755 34.1597 30.5518 38.5883 28.2515C39.5399 27.7692 40.3207 26.9653 40.7721 25.9883C41.0893 25.2957 41.8945 24.9989 42.5777 25.3205C43.2609 25.642 43.5537 26.4583 43.2365 27.1508C42.5289 28.6967 41.3211 29.9582 39.8205 30.7126C36.3435 32.5059 34.3427 35.2514 34.3427 38.2196V67.6661C34.3427 70.3374 36.4533 72.5264 39.0519 72.5264H56.2905C58.9257 72.5264 61.0851 70.3498 61.0851 67.6661V38.2196C61.0851 35.2514 59.0843 32.5182 55.5951 30.7002C53.0453 29.4511 51.5081 26.9406 51.5081 23.9724V22.6739C51.5081 21.9195 52.1181 21.3011 52.8623 21.3011C53.6187 21.3011 54.2165 21.9195 54.2165 22.6739V23.9724C54.2165 25.8523 55.1803 27.4476 56.8029 28.2392C61.2559 30.5518 63.7935 34.1755 63.7935 38.2196V67.6661C63.7813 71.8586 60.4141 75.272 56.2783 75.272ZM42.5533 24.059C41.7969 24.059 41.1991 23.4406 41.1991 22.6862V17.8259C41.1991 17.0715 41.8091 16.4531 42.5533 16.4531H52.8501C53.6065 16.4531 54.2043 17.0715 54.2043 17.8259V18.7905C54.2043 19.5449 53.5943 20.1633 52.8501 20.1633C52.2401 20.1633 51.7277 19.7552 51.5569 19.1987H43.9075V22.6739C43.9075 23.4406 43.2975 24.059 42.5533 24.059Z" fill="#3A3A3A"></path><path d="M54.6806 24.058H40.7116C39.9552 24.058 39.3574 23.4397 39.3574 22.6853C39.3574 21.9309 39.9674 21.3125 40.7116 21.3125H54.6806C55.437 21.3125 56.0348 21.9309 56.0348 22.6853C56.0348 23.4397 55.437 24.058 54.6806 24.058Z" fill="#3A3A3A"></path><path d="M58.5963 41.3705H32.9763C32.2199 41.3705 31.6221 40.7522 31.6221 39.9978C31.6221 39.2434 32.2321 38.625 32.9763 38.625H58.5963C59.3527 38.625 59.9505 39.2434 59.9505 39.9978C59.9505 40.7522 59.3405 41.3705 58.5963 41.3705Z" fill="#3A3A3A"></path><path d="M62.4274 67.2573H36.8073C36.0509 67.2573 35.4531 66.6389 35.4531 65.8845C35.4531 65.1301 36.0631 64.5117 36.8073 64.5117H62.4274C63.1838 64.5117 63.7816 65.1301 63.7816 65.8845C63.7816 66.6389 63.1716 67.2573 62.4274 67.2573Z" fill="#3A3A3A"></path><path d="M47.653 61.8434C46.8966 61.8434 46.2988 61.2251 46.2988 60.4706V45.4196C46.2988 44.6529 46.9088 44.0469 47.653 44.0469C48.4094 44.0469 49.0072 44.6652 49.0072 45.4196V60.4706C49.0194 61.2251 48.4094 61.8434 47.653 61.8434Z" fill="#3A3A3A"></path><path d="M47.6525 57.2282C47.5793 57.2282 47.5061 57.2282 47.4329 57.2158L40.9669 56.1646C40.2227 56.0409 39.7225 55.336 39.8445 54.594C39.9665 53.8396 40.6741 53.3325 41.3939 53.4562L44.5537 53.9632L41.3817 49.6347C40.9303 49.0287 41.0523 48.163 41.6623 47.7054C42.2601 47.2478 43.1141 47.3715 43.5655 47.9898L48.7505 55.0268C49.0799 55.4721 49.1165 56.078 48.8237 56.5604C48.5675 56.9809 48.1283 57.2282 47.6525 57.2282Z" fill="#3A3A3A"></path><path d="M47.6532 57.2298C47.1774 57.2298 46.7382 56.9824 46.4942 56.5619C46.2136 56.0796 46.238 55.4736 46.5796 55.0284L51.85 47.9914C52.3014 47.3854 53.1554 47.2617 53.7532 47.7317C54.351 48.1893 54.473 49.055 54.0094 49.661L50.7886 53.9648L53.9118 53.4577C54.6438 53.3464 55.3514 53.8535 55.4612 54.5955C55.5832 55.3499 55.0708 56.0549 54.3388 56.1662L47.8728 57.2174C47.7996 57.2298 47.7264 57.2298 47.6532 57.2298Z" fill="#3A3A3A"></path><path d="M43.7489 60.3069C43.4073 60.3069 43.0535 60.1709 42.7851 59.9112C42.2605 59.3794 42.2605 58.5013 42.7851 57.9696C43.3097 57.4378 44.2125 57.3883 44.7371 57.9325C45.2617 58.4642 45.3105 59.2928 44.7737 59.837L44.6883 59.9236C44.4443 60.1709 44.0905 60.3069 43.7489 60.3069Z" fill="#3A3A3A"></path><path d="M51.5692 60.3089C51.2276 60.3089 50.8738 60.1729 50.6054 59.9132C50.0808 59.3814 50.032 58.4662 50.5688 57.9344C51.1056 57.4026 51.9109 57.3531 52.4477 57.8973L52.5331 57.9839C53.0577 58.5157 53.0577 59.3937 52.5331 59.9255C52.2647 60.1729 51.923 60.3089 51.5692 60.3089Z" fill="#3A3A3A"></path></g><defs><clipPath id="clip0"><rect width="58.1818" height="71.2727" fill="white" transform="translate(5.59961 4)"></rect></clipPath></defs></svg>