<svg xmlns="http://www.w3.org/2000/svg" width="80" height="80" viewBox="0 0 80 80" fill="none"><g clip-path="url(#clip0)"><g clip-path="url(#clip1)"><path fill-rule="evenodd" clip-rule="evenodd" d="M78.5158 10.9729C78.5158 9.04695 76.8571 7.46875 74.9308 7.46875H7.97953C5.973 7.46875 4.39453 9.04695 4.39453 10.9729V60.325C4.39453 62.2509 5.973 63.8291 7.97953 63.8291H74.9308C76.8571 63.8291 78.5158 62.2509 78.5158 60.325C78.5158 43.8743 78.5158 27.4236 78.5158 10.9729Z" fill="#F3BBA4"></path><path fill-rule="evenodd" clip-rule="evenodd" d="M4.39453 54.4531V60.3112C4.39453 62.2371 5.973 63.8153 7.97953 63.8153H74.9308C76.8571 63.8153 78.5158 62.2371 78.5158 60.3112V54.4531H4.39453Z" fill="#B9BABA"></path><path fill-rule="evenodd" clip-rule="evenodd" d="M48.7655 74.1416L46.6653 63.8164H36.2447L34.1445 74.1416H48.7655Z" fill="#E4E7E7"></path><path fill-rule="evenodd" clip-rule="evenodd" d="M41.4078 0.03125C47.7083 10.7041 49.0192 20.5879 45.4342 29.6024H45.9559C50.6779 23.1291 57.1523 19.3709 65.553 18.5818C62.8375 24.4398 58.8111 28.733 53.5673 31.4481C55.5739 32.2372 57.5938 33.2804 59.6939 34.5108C54.8783 36.8781 48.8453 37.5736 41.4078 36.6106C34.0505 37.5736 27.9373 36.8781 23.2018 34.5108C25.2084 33.2804 27.3085 32.2372 29.3284 31.4481C24.0713 28.733 20.0583 24.4532 17.3428 18.5818C25.7434 19.3709 32.2179 23.1291 36.9399 29.6024H37.3813C33.89 20.6013 35.2009 10.7041 41.4078 0.03125Z" fill="#C7D9B0"></path><path d="M74.9303 65.3139H7.97901C5.18325 65.3139 2.90918 63.067 2.90918 60.3252V10.9731C2.90918 8.21793 5.18325 5.98438 7.97901 5.98438H31.7765C32.6058 5.98438 33.2613 6.6531 33.2613 7.46895C33.2613 8.2848 32.5925 8.95353 31.7765 8.95353H7.97901C6.80185 8.95353 5.87885 9.83625 5.87885 10.9731V60.3252C5.87885 61.4486 6.80185 62.3447 7.97901 62.3447H74.9303C76.0539 62.3447 77.0304 61.4085 77.0304 60.3252V10.9731C77.0304 9.90312 76.0539 8.95353 74.9303 8.95353H51.1328C50.3034 8.95353 49.648 8.2848 49.648 7.46895C49.648 6.6531 50.3168 5.98438 51.1328 5.98438H74.9303C77.6859 5.98438 80.0001 8.27142 80.0001 10.9731V60.3252C80.0001 63.0268 77.6859 65.3139 74.9303 65.3139Z" fill="#3A3A3A"></path><path d="M54.1822 75.6254H28.726C27.8967 75.6254 27.2412 74.9567 27.2412 74.1408C27.2412 73.325 27.9101 72.6562 28.726 72.6562H54.1956C55.025 72.6562 55.6804 73.325 55.6804 74.1408C55.6804 74.9567 55.0116 75.6254 54.1822 75.6254Z" fill="#3A3A3A"></path><path d="M34.1576 75.6365C34.0506 75.6365 33.9569 75.6231 33.8499 75.6097C33.0473 75.4358 32.539 74.6467 32.6995 73.8443L33.7429 68.8556C33.9168 68.0531 34.6927 67.5449 35.5086 67.7054C36.3113 67.8792 36.8196 68.6683 36.6591 69.4708L35.6157 74.4595C35.4551 75.155 34.8398 75.6365 34.1576 75.6365Z" fill="#3A3A3A"></path><path d="M48.765 75.637C48.0694 75.637 47.4541 75.1421 47.3069 74.4466L45.2068 64.1215C45.0462 63.319 45.5679 62.5299 46.3705 62.3694C47.1731 62.2357 47.9624 62.7305 48.1229 63.533L50.2231 73.8582C50.3836 74.6606 49.8619 75.4497 49.0593 75.6102C48.9523 75.6236 48.8586 75.637 48.765 75.637Z" fill="#3A3A3A"></path><path d="M78.5153 55.9513H4.39401C3.57802 55.9513 2.90918 55.2825 2.90918 54.4533C2.90918 53.6241 3.57802 52.9688 4.39401 52.9688H78.5153C79.3446 52.9688 80.0001 53.6375 80.0001 54.4533C80.0001 55.2692 79.3446 55.9513 78.5153 55.9513Z" fill="#3A3A3A"></path><path d="M42.0232 60.6723H40.8862C40.0568 60.6723 39.4014 60.0035 39.4014 59.1877C39.4014 58.3585 40.0702 57.7031 40.8862 57.7031H42.0232C42.8526 57.7031 43.5081 58.3719 43.5081 59.1877C43.5081 60.0035 42.8526 60.6723 42.0232 60.6723Z" fill="#3A3A3A"></path><path d="M41.4077 49.2886C40.5783 49.2886 39.9229 48.6199 39.9229 47.8041V36.6096C39.9229 35.7804 40.5917 35.125 41.4077 35.125C42.237 35.125 42.8925 35.7937 42.8925 36.6096V47.8041C42.8925 48.6333 42.237 49.2886 41.4077 49.2886Z" fill="#3A3A3A"></path><path d="M49.1122 34.6049C48.4701 34.6049 47.8815 34.1903 47.6942 33.5483C47.4535 32.7592 47.8949 31.93 48.6841 31.6892C54.9178 29.8034 59.5729 26.0986 62.8369 20.4011C58.5429 21.2437 54.8776 22.8888 51.8946 25.3363C51.2792 25.8579 50.3295 25.7643 49.8078 25.1357C49.2861 24.5071 49.3797 23.5709 50.0084 23.0492C54.0616 19.719 59.2117 17.6861 65.3116 17.0307C65.8467 16.9772 66.3684 17.2046 66.676 17.6459C66.9837 18.0739 67.0506 18.649 66.8232 19.1305C63.2248 26.9814 57.4058 32.1707 49.5403 34.5514C49.3931 34.5781 49.2593 34.6049 49.1122 34.6049ZM44.0424 33.9896C43.8016 33.9896 43.5608 33.9228 43.3334 33.8024C42.611 33.4145 42.3435 32.5051 42.7314 31.7828C47.6942 22.5945 46.8247 12.1624 40.1363 0.78062C39.7216 0.0717686 39.949 -0.837701 40.658 -1.25231C41.367 -1.6803 42.2766 -1.43956 42.6913 -0.730705C49.9549 11.6006 50.8378 23.0225 45.3399 33.1872C45.0724 33.7088 44.5641 33.9896 44.0424 33.9896Z" fill="#3A3A3A"></path><path d="M47.5615 38.523C45.5683 38.523 43.4548 38.3758 41.2208 38.095C40.4048 37.988 39.8296 37.239 39.9366 36.4365C40.0437 35.6207 40.7928 35.0322 41.5954 35.1526C48.7654 36.0754 54.4639 35.4334 59.0388 33.1865C59.7746 32.8254 60.6708 33.133 61.032 33.8686C61.3932 34.6042 61.0855 35.5003 60.3498 35.8614C56.7112 37.6269 52.4975 38.523 47.5615 38.523Z" fill="#3A3A3A"></path><path d="M48.324 43.0861C48.2705 43.0861 48.2304 43.0861 48.1769 43.0861C47.2271 42.9925 46.371 42.8052 45.6085 42.618C44.8059 42.4174 44.3243 41.6149 44.525 40.8124C44.7256 40.0099 45.5149 39.5285 46.3309 39.7291C46.9729 39.8896 47.6819 40.0501 48.4845 40.1303C49.3005 40.2106 49.9025 40.9462 49.8222 41.762C49.7286 42.511 49.0865 43.0861 48.324 43.0861Z" fill="#3A3A3A"></path><path d="M33.7972 34.6055C33.6501 34.6055 33.5163 34.5787 33.3691 34.5386C25.5035 32.158 19.6846 26.9686 16.0862 19.1178C15.8588 18.6229 15.9257 18.0612 16.2334 17.6332C16.541 17.1918 17.0627 16.9645 17.5978 17.018C23.6843 17.6733 28.6872 19.6394 32.901 23.0231C33.543 23.5314 33.6367 24.4676 33.1284 25.1096C32.62 25.7515 31.6703 25.8585 31.0416 25.3369C27.9515 22.8493 24.3398 21.2176 20.0859 20.3883C23.3499 26.0859 27.9916 29.7907 34.2386 31.6765C35.0279 31.9172 35.4693 32.7464 35.2285 33.5355C35.0279 34.1909 34.4393 34.6055 33.7972 34.6055ZM38.8804 33.9903C38.3587 33.9903 37.837 33.7094 37.5695 33.2145C32.085 23.0633 32.9411 11.6548 40.1245 -0.703326C40.5391 -1.41218 41.4488 -1.65292 42.1577 -1.23831C42.8667 -0.823697 43.1075 0.0857723 42.6928 0.794624C36.0713 12.1897 35.2285 22.6219 40.178 31.7968C40.5659 32.5191 40.2984 33.4285 39.576 33.8164C39.362 33.9234 39.1212 33.9903 38.8804 33.9903Z" fill="#3A3A3A"></path><path d="M35.3482 38.51C30.3988 38.51 26.1048 37.6139 22.5465 35.8351C21.8108 35.474 21.5165 34.5779 21.8777 33.8423C22.2389 33.1067 23.1485 32.8125 23.8709 33.1736C28.312 35.3938 34.1443 36.0491 41.2207 35.1263C42.0233 35.0193 42.7858 35.581 42.8928 36.4102C42.9998 37.2261 42.4246 37.975 41.6086 38.082C39.4148 38.3763 37.328 38.51 35.3482 38.51Z" fill="#3A3A3A"></path><path d="M34.5861 43.0844C33.837 43.0844 33.1815 42.5093 33.1146 41.7469C33.0343 40.9311 33.6363 40.1955 34.4523 40.1152C35.2549 40.035 35.9639 39.8745 36.606 39.714C37.4086 39.5 38.2112 39.9949 38.4118 40.7973C38.6125 41.5998 38.1309 42.4023 37.3283 42.6029C36.5658 42.7902 35.7097 42.9774 34.76 43.071C34.6797 43.0844 34.6396 43.0844 34.5861 43.0844Z" fill="#3A3A3A"></path></g></g><defs><clipPath id="clip0"><rect width="80" height="80" fill="white"></rect></clipPath><clipPath id="clip1"><rect width="77.0909" height="77.0909" fill="white" transform="translate(2.90918 -1.45312)"></rect></clipPath></defs></svg>