<svg xmlns="http://www.w3.org/2000/svg" width="80" height="80" viewBox="0 0 80 80" fill="none"><g clip-path="url(#clip0)"><g clip-path="url(#clip1)"><path fill-rule="evenodd" clip-rule="evenodd" d="M26.7891 59.5234C26.7891 65.3012 26.9617 74.3157 30.8657 76.5893C33.0434 77.7262 37.7308 78.5153 42.8565 78.5153C48.0751 78.5153 52.7625 77.7262 54.927 76.5893C58.8309 74.3157 59.0036 65.3012 59.0036 59.5234H26.7891Z" fill="#F3BBA4"></path><path fill-rule="evenodd" clip-rule="evenodd" d="M42.8702 63.5536C51.7272 63.5536 59.0305 61.7213 59.0305 59.5279C59.0305 57.2542 51.7272 55.4219 42.8702 55.4219C34.0132 55.4219 26.8028 57.2542 26.8028 59.5279C26.7895 61.7079 33.9999 63.5536 42.8702 63.5536Z" fill="#F3BBA4"></path><path fill-rule="evenodd" clip-rule="evenodd" d="M42.8704 4.39453C50.6916 17.7825 51.6477 30.0335 45.8183 40.9739C51.1165 31.5181 59.1104 26.2753 69.7069 25.2187C65.6303 34.3134 58.6722 40.011 49.0317 42.3649C55.0205 41.1344 60.5843 42.2713 65.6303 45.6015C59.8142 48.8382 53.6395 48.5707 46.947 44.8124C48.7662 46.297 49.9878 48.2229 50.5986 50.4966C47.1196 50.2291 44.3443 48.5707 42.8704 45.6015C41.3964 48.5707 38.6078 50.2425 35.2217 50.4966C35.8326 48.2229 37.0409 46.297 38.8734 44.8124C32.1809 48.5707 25.9265 48.8382 20.1901 45.6015C25.2228 42.2713 30.7866 41.1344 36.6957 42.3649C27.0552 40.011 20.1901 34.3268 16.0205 25.2187C26.71 26.2753 34.7039 31.5181 40.0021 40.9739C34.186 30.0335 35.1421 17.7825 42.8704 4.39453Z" fill="#C7D9B0"></path><path d="M42.8704 60.1384C42.0604 60.1384 41.3965 59.4696 41.3965 58.6538V45.7072C41.3965 44.8914 42.0604 44.2227 42.8704 44.2227C43.6804 44.2227 44.3444 44.8914 44.3444 45.7072V58.6538C44.3444 59.4696 43.6804 60.1384 42.8704 60.1384Z" fill="#3A3A3A"></path><path d="M28.5156 49.4285C25.3818 49.4285 22.3675 48.6127 19.4727 46.9944C19.0212 46.7403 18.7423 46.2722 18.7158 45.7639C18.6892 45.2557 18.9415 44.7608 19.3532 44.4666C21.106 43.2495 22.9916 42.3133 24.9303 41.658C25.7137 41.3905 26.537 41.8185 26.8026 42.5942C27.0549 43.3699 26.6433 44.2125 25.8731 44.48C25.0232 44.7608 24.1867 45.1086 23.3767 45.5232C27.5197 47.0211 31.9814 46.66 36.6821 44.4265C37.4257 44.0787 38.3021 44.3997 38.6473 45.1353C38.9926 45.8843 38.6739 46.767 37.9436 47.1148C34.7035 48.6662 31.5564 49.4285 28.5156 49.4285Z" fill="#3A3A3A"></path><path d="M35.5666 43.5972C35.4338 43.5972 35.3143 43.5838 35.1815 43.5437C25.727 40.9891 18.8353 35.0241 14.679 25.8358C14.4532 25.3543 14.5196 24.7792 14.8251 24.3512C15.1305 23.9232 15.6616 23.6825 16.1795 23.7493C22.8986 24.4849 28.6616 26.7987 33.2959 30.6372C33.92 31.1588 34.013 32.0951 33.4951 32.737C32.9772 33.3656 32.0477 33.4593 31.4103 32.9376C27.8649 29.9953 23.5758 28.0426 18.6095 27.1064C22.4604 34.1146 28.157 38.555 35.9517 40.6681C36.7352 40.8821 37.2132 41.698 37.0007 42.4871C36.8148 43.1558 36.2173 43.5972 35.5666 43.5972Z" fill="#3A3A3A"></path><path d="M40.0012 42.5531C39.4701 42.5531 38.9655 42.2723 38.6999 41.764C32.6448 30.2887 33.6141 17.4625 41.5947 3.65995C42.0064 2.9511 42.9093 2.71036 43.6131 3.12497C44.3169 3.53958 44.5559 4.44905 44.1442 5.1579C36.7214 18.0242 35.7653 29.8741 41.3026 40.3731C41.6877 41.0953 41.4088 42.0048 40.6917 42.3793C40.466 42.4863 40.2403 42.5531 40.0012 42.5531Z" fill="#3A3A3A"></path><path d="M35.6597 52.7856C34.9427 52.7856 34.3186 52.264 34.1991 51.5284C34.0795 50.7125 34.624 49.9502 35.434 49.8298C38.4217 49.3617 40.5729 47.7166 41.4759 45.1888C41.7547 44.4131 42.6046 44.0119 43.3615 44.2928C44.1316 44.5736 44.53 45.4296 44.2512 46.1919C42.9764 49.7362 39.9222 52.1302 35.8722 52.7588C35.8058 52.7856 35.7261 52.7856 35.6597 52.7856Z" fill="#3A3A3A"></path><path d="M57.305 49.4285C54.2641 49.4285 51.117 48.6662 47.8903 47.1281C47.1466 46.7804 46.828 45.8843 47.1865 45.1487C47.5317 44.3997 48.4081 44.0921 49.1518 44.4399C53.9189 46.7001 58.3009 47.0746 62.4704 45.5366C61.6471 45.122 60.8106 44.7742 59.9607 44.48C59.1906 44.2259 58.7656 43.3833 59.0312 42.5942C59.2835 41.8185 60.1201 41.3905 60.9035 41.658C62.8555 42.3133 64.7278 43.2495 66.4806 44.4666C66.9056 44.7608 67.1446 45.2423 67.118 45.7639C67.0915 46.2722 66.8126 46.7403 66.3611 46.9944C63.4531 48.6127 60.4388 49.4285 57.305 49.4285Z" fill="#3A3A3A"></path><path d="M50.2531 43.5955C49.6024 43.5955 49.0049 43.1542 48.819 42.4988C48.6065 41.7097 49.0713 40.8939 49.868 40.6799C57.6627 38.5667 63.3593 34.113 67.2102 27.1181C62.2439 28.0543 57.9548 30.007 54.4094 32.9494C53.7853 33.471 52.8558 33.3907 52.3246 32.7488C51.8067 32.1202 51.8997 31.1706 52.5238 30.649C57.1581 26.8105 62.9211 24.4833 69.6402 23.7611C70.1448 23.6942 70.6893 23.9349 70.9947 24.3629C71.3001 24.7909 71.3665 25.366 71.1407 25.8475C66.9845 35.0358 60.0927 40.9875 50.6382 43.5554C50.5054 43.5822 50.3726 43.5955 50.2531 43.5955Z" fill="#3A3A3A"></path><path d="M45.8179 42.5531C45.5789 42.5531 45.3531 42.4996 45.1274 42.3793C44.4103 41.9914 44.1315 41.0953 44.5165 40.3731C50.0671 29.8473 49.0845 17.9975 41.5952 5.1579C41.1836 4.44905 41.4226 3.53958 42.1264 3.12497C42.8301 2.71036 43.7331 2.9511 44.1447 3.65995C52.1917 17.4491 53.2009 30.2753 47.1325 41.7774C46.8536 42.2589 46.349 42.5531 45.8179 42.5531Z" fill="#3A3A3A"></path><path d="M50.0807 52.7828C50.001 52.7828 49.9346 52.7828 49.8549 52.7695C45.8447 52.1542 42.8835 49.8271 41.4892 46.2427C41.1971 45.4803 41.5689 44.611 42.3258 44.3168C43.0827 44.0091 43.9458 44.397 44.238 45.1593C45.2472 47.754 47.332 49.3723 50.2931 49.8271C51.1032 49.9474 51.6476 50.7098 51.5281 51.5256C51.4218 52.2612 50.7977 52.7828 50.0807 52.7828Z" fill="#3A3A3A"></path><path d="M42.8701 65.0363C36.3502 65.0363 25.3154 63.8727 25.3154 59.5259C25.3154 54.1627 41.0642 54.0156 42.8701 54.0156C43.6801 54.0156 44.344 54.6844 44.344 55.5002C44.344 56.316 43.6801 56.9848 42.8701 56.9848C34.5841 56.9848 29.3655 58.5228 28.3696 59.5126C29.4053 60.5023 34.6637 62.0671 42.8701 62.0671C51.1295 62.0671 56.4145 60.5023 57.4503 59.5126C56.7598 58.8438 53.7322 57.5599 47.4513 57.0784C46.6413 57.0115 46.0304 56.3027 46.0968 55.4868C46.1632 54.671 46.867 54.0557 47.677 54.1226C52.4707 54.4971 60.5044 55.6874 60.5044 59.5393C60.5044 63.8727 49.4166 65.0363 42.8701 65.0363Z" fill="#3A3A3A"></path><path d="M42.8701 80.0001C37.5984 80.0001 32.6321 79.1842 30.202 77.9136C25.8997 75.3992 25.3154 67.5885 25.3154 59.5236C25.3154 58.7078 25.9794 58.0391 26.7894 58.0391C27.5994 58.0391 28.2633 58.7078 28.2633 59.5236C28.2633 63.3086 28.2633 73.3529 31.6096 75.3056C33.2163 76.1482 37.3726 77.0309 42.8568 77.0309C48.4074 77.0309 52.5769 76.1482 54.2501 75.2788C57.5299 73.3663 57.5299 63.322 57.5299 59.537C57.5299 58.7212 58.1939 58.0524 59.0039 58.0524C59.8139 58.0524 60.4778 58.7212 60.4778 59.537C60.4778 67.6152 59.8936 75.426 55.6576 77.8869C53.1612 79.1976 48.2746 80.0001 42.8701 80.0001Z" fill="#3A3A3A"></path></g></g><defs><clipPath id="clip0"><rect width="80" height="80" fill="white"></rect></clipPath><clipPath id="clip1"><rect width="56.7273" height="77.0909" fill="white" transform="translate(14.5459 2.91016)"></rect></clipPath></defs></svg>